#usda 1.0
(
    "Generic in-row / row-end coolant distribution unit cabinet (900 x 1243 x 2122 mm). Parametric asset generated by AIDC Studio tools/asset-pipeline/generic_usd.py. Not a model of any vendor product; no display, logo or lettering."
    defaultPrim = "GenericCDU"
    metersPerUnit = 1
    upAxis = "Z"
)

def Xform "GenericCDU" (
    kind = "component"
)
{
    custom string aidc:assetClass = "Coolant Distribution Unit" (
        doc = "Generic equipment class"
    )
    custom string aidc:assetVersion = "1.0.0" (
        doc = "Asset revision"
    )
    custom string aidc:colorSpace = "linear" (
        doc = "diffuseColor / emissiveColor are linear (sRGB hex in generic_spec.json palette)"
    )
    custom string aidc:description = "Generic in-row CDU cabinet, 900 mm frontage" (
        doc = "Description"
    )
    custom float3 aidc:dimsMm = (900, 1243, 2122) (
        doc = "W x D x H in mm (catalog-sized body)"
    )
    custom string aidc:generator = "tools/asset-pipeline/generic_usd.py" (
        doc = "AIDC Studio generator"
    )
    custom string aidc:licence = "Apache-2.0 (AIDC Studio original)" (
        doc = "Licence of this generated asset"
    )
    custom int aidc:lod = 0 (
        doc = "0 = full detail, 1 = explicit low detail"
    )
    custom string aidc:manufacturer = "generic" (
        doc = "Not a model of any vendor product"
    )
    custom string aidc:modelName = "generic_cdu_900x2122" (
        doc = "Generic model name (form factor / size keyed)"
    )
    custom string aidc:nativeFront = "+X" (
        doc = "Front axis (usd_to_glb maps it to glTF -Z)"
    )
    custom string aidc:sourceTag = "body dims: catalog; doors, louvres, stubs: estimate (generic design)" (
        doc = "Provenance summary"
    )
    custom string aidc:specFile = "tools/asset-pipeline/generic_spec.json" (
        doc = "Parameter source"
    )
    custom int aidc:triangles = 1960 (
        doc = "Authored triangle count"
    )

    def Scope "Looks"
    {
        def Material "Plinth"
        {
            token outputs:surface.connect = </GenericCDU/Looks/Plinth/PreviewSurface.outputs:surface>

            def Shader "PreviewSurface"
            {
                custom string aidc:srgbDiffuse = "#111214" (
                    doc = "sRGB hex from the parameter spec; diffuseColor holds the linear conversion"
                )
                uniform token info:id = "UsdPreviewSurface"
                color3f inputs:diffuseColor = (0.0056053917, 0.006048833, 0.00699541)
                float inputs:metallic = 0.1
                float inputs:roughness = 0.85
                token outputs:surface
            }
        }

        def Material "CabinetLight"
        {
            token outputs:surface.connect = </GenericCDU/Looks/CabinetLight/PreviewSurface.outputs:surface>

            def Shader "PreviewSurface"
            {
                custom string aidc:srgbDiffuse = "#c6c9cc" (
                    doc = "sRGB hex from the parameter spec; diffuseColor holds the linear conversion"
                )
                uniform token info:id = "UsdPreviewSurface"
                color3f inputs:diffuseColor = (0.5647115, 0.58407843, 0.60382736)
                float inputs:metallic = 0.15
                float inputs:roughness = 0.6
                token outputs:surface
            }
        }

        def Material "CabinetTrim"
        {
            token outputs:surface.connect = </GenericCDU/Looks/CabinetTrim/PreviewSurface.outputs:surface>

            def Shader "PreviewSurface"
            {
                custom string aidc:srgbDiffuse = "#8e9296" (
                    doc = "sRGB hex from the parameter spec; diffuseColor holds the linear conversion"
                )
                uniform token info:id = "UsdPreviewSurface"
                color3f inputs:diffuseColor = (0.2704978, 0.28744084, 0.3049873)
                float inputs:metallic = 0.25
                float inputs:roughness = 0.55
                token outputs:surface
            }
        }

        def Material "Handle"
        {
            token outputs:surface.connect = </GenericCDU/Looks/Handle/PreviewSurface.outputs:surface>

            def Shader "PreviewSurface"
            {
                custom string aidc:srgbDiffuse = "#a9adb2" (
                    doc = "sRGB hex from the parameter spec; diffuseColor holds the linear conversion"
                )
                uniform token info:id = "UsdPreviewSurface"
                color3f inputs:diffuseColor = (0.39675522, 0.41788507, 0.4452012)
                float inputs:metallic = 0.5
                float inputs:roughness = 0.4
                token outputs:surface
            }
        }

        def Material "DoorLine"
        {
            token outputs:surface.connect = </GenericCDU/Looks/DoorLine/PreviewSurface.outputs:surface>

            def Shader "PreviewSurface"
            {
                custom string aidc:srgbDiffuse = "#55585c" (
                    doc = "sRGB hex from the parameter spec; diffuseColor holds the linear conversion"
                )
                uniform token info:id = "UsdPreviewSurface"
                color3f inputs:diffuseColor = (0.09084171, 0.09758735, 0.107023105)
                float inputs:metallic = 0.1
                float inputs:roughness = 0.8
                token outputs:surface
            }
        }

        def Material "LouvreGap"
        {
            token outputs:surface.connect = </GenericCDU/Looks/LouvreGap/PreviewSurface.outputs:surface>

            def Shader "PreviewSurface"
            {
                custom string aidc:srgbDiffuse = "#1c1d1f" (
                    doc = "sRGB hex from the parameter spec; diffuseColor holds the linear conversion"
                )
                uniform token info:id = "UsdPreviewSurface"
                color3f inputs:diffuseColor = (0.011612245, 0.012286488, 0.013702083)
                float inputs:metallic = 0
                float inputs:roughness = 0.95
                token outputs:surface
            }
        }

        def Material "Louvre"
        {
            token outputs:surface.connect = </GenericCDU/Looks/Louvre/PreviewSurface.outputs:surface>

            def Shader "PreviewSurface"
            {
                custom string aidc:srgbDiffuse = "#7b7f83" (
                    doc = "sRGB hex from the parameter spec; diffuseColor holds the linear conversion"
                )
                uniform token info:id = "UsdPreviewSurface"
                color3f inputs:diffuseColor = (0.19806932, 0.21223076, 0.22696587)
                float inputs:metallic = 0.2
                float inputs:roughness = 0.65
                token outputs:surface
            }
        }

        def Material "StatusLamp"
        {
            token outputs:surface.connect = </GenericCDU/Looks/StatusLamp/PreviewSurface.outputs:surface>

            def Shader "PreviewSurface"
            {
                custom string aidc:srgbDiffuse = "#dfe5e8" (
                    doc = "sRGB hex from the parameter spec; diffuseColor holds the linear conversion"
                )
                custom string aidc:srgbEmissive = "#2a2c2e"
                uniform token info:id = "UsdPreviewSurface"
                color3f inputs:diffuseColor = (0.7379104, 0.7835378, 0.80695224)
                color3f inputs:emissiveColor = (0.023153367, 0.02518686, 0.027320892)
                float inputs:metallic = 0
                float inputs:roughness = 0.4
                token outputs:surface
            }
        }

        def Material "PipeSteel"
        {
            token outputs:surface.connect = </GenericCDU/Looks/PipeSteel/PreviewSurface.outputs:surface>

            def Shader "PreviewSurface"
            {
                custom string aidc:srgbDiffuse = "#9ca1a6" (
                    doc = "sRGB hex from the parameter spec; diffuseColor holds the linear conversion"
                )
                uniform token info:id = "UsdPreviewSurface"
                color3f inputs:diffuseColor = (0.33245152, 0.35640013, 0.38132602)
                float inputs:metallic = 0.6
                float inputs:roughness = 0.35
                token outputs:surface
            }
        }

        def Material "Flange"
        {
            token outputs:surface.connect = </GenericCDU/Looks/Flange/PreviewSurface.outputs:surface>

            def Shader "PreviewSurface"
            {
                custom string aidc:srgbDiffuse = "#5f6367" (
                    doc = "sRGB hex from the parameter spec; diffuseColor holds the linear conversion"
                )
                uniform token info:id = "UsdPreviewSurface"
                color3f inputs:diffuseColor = (0.114435375, 0.12477182, 0.13563333)
                float inputs:metallic = 0.5
                float inputs:roughness = 0.45
                token outputs:surface
            }
        }

        def Material "Marker"
        {
            token outputs:surface.connect = </GenericCDU/Looks/Marker/PreviewSurface.outputs:surface>

            def Shader "PreviewSurface"
            {
                custom string aidc:srgbDiffuse = "#808080" (
                    doc = "sRGB hex from the parameter spec; diffuseColor holds the linear conversion"
                )
                uniform token info:id = "UsdPreviewSurface"
                color3f inputs:diffuseColor = (0.2158605, 0.2158605, 0.2158605)
                float inputs:metallic = 0
                float inputs:roughness = 1
                token outputs:surface
            }
        }
    }

    def Scope "Geometry"
    {
        def "Cabinet"
        {
            def Mesh "Plinth" (
                prepend apiSchemas = ["MaterialBindingAPI"]
            )
            {
                float3[] extent = [(-0.6215, -0.45, 0), (0.6215, 0.45, 0.05)]
                int[] faceVertexCounts = [4, 4, 4, 4, 4, 4]
                int[] faceVertexIndices = [0, 3, 2, 1, 4, 5, 6, 7, 0, 1, 5, 4, 2, 3, 7, 6, 1, 2, 6, 5, 3, 0, 4, 7]
                rel material:binding = </GenericCDU/Looks/Plinth>
                uniform token orientation = "rightHanded"
                point3f[] points = [(-0.6215, -0.45, 0), (0.6215, -0.45, 0), (0.6215, 0.45, 0), (-0.6215, 0.45, 0), (-0.6215, -0.45, 0.05), (0.6215, -0.45, 0.05), (0.6215, 0.45, 0.05), (-0.6215, 0.45, 0.05)]
                uniform token subdivisionScheme = "none"
            }

            def Mesh "CabinetLight" (
                prepend apiSchemas = ["MaterialBindingAPI"]
            )
            {
                float3[] extent = [(-0.6095, -0.448, 0.05), (0.6095, 0.448, 2.122)]
                int[] faceVertexCounts = [4, 4, 4, 4, 4, 4]
                int[] faceVertexIndices = [0, 3, 2, 1, 4, 5, 6, 7, 0, 1, 5, 4, 2, 3, 7, 6, 1, 2, 6, 5, 3, 0, 4, 7]
                rel material:binding = </GenericCDU/Looks/CabinetLight>
                uniform token orientation = "rightHanded"
                point3f[] points = [(-0.6095, -0.448, 0.05), (0.6095, -0.448, 0.05), (0.6095, 0.448, 0.05), (-0.6095, 0.448, 0.05), (-0.6095, -0.448, 2.122), (0.6095, -0.448, 2.122), (0.6095, 0.448, 2.122), (-0.6095, 0.448, 2.122)]
                uniform token subdivisionScheme = "none"
            }

            def Mesh "CabinetTrim" (
                prepend apiSchemas = ["MaterialBindingAPI"]
            )
            {
                float3[] extent = [(-0.6215, -0.45, 0.05), (0.6215, 0.45, 2.122)]
                int[] faceVertexCounts = [4, 4, 4, 4, 4, 4, 4, 4, 4, 4, 4, 4, 4, 4, 4, 4, 4, 4, 4, 4, 4, 4, 4, 4, 4, 4, 4, 4, 4, 4, 4, 4, 4, 4, 4, 4, 4, 4, 4, 4, 4, 4, 4, 4, 4, 4, 4, 4]
                int[] faceVertexIndices = [0, 3, 2, 1, 4, 5, 6, 7, 0, 1, 5, 4, 2, 3, 7, 6, 1, 2, 6, 5, 3, 0, 4, 7, 8, 11, 10, 9, 12, 13, 14, 15, 8, 9, 13, 12, 10, 11, 15, 14, 9, 10, 14, 13, 11, 8, 12, 15, 16, 19, 18, 17, 20, 21, 22, 23, 16, 17, 21, 20, 18, 19, 23, 22, 17, 18, 22, 21, 19, 16, 20, 23, 24, 27, 26, 25, 28, 29, 30, 31, 24, 25, 29, 28, 26, 27, 31, 30, 25, 26, 30, 29, 27, 24, 28, 31, 32, 35, 34, 33, 36, 37, 38, 39, 32, 33, 37, 36, 34, 35, 39, 38, 33, 34, 38, 37, 35, 32, 36, 39, 40, 43, 42, 41, 44, 45, 46, 47, 40, 41, 45, 44, 42, 43, 47, 46, 41, 42, 46, 45, 43, 40, 44, 47, 48, 51, 50, 49, 52, 53, 54, 55, 48, 49, 53, 52, 50, 51, 55, 54, 49, 50, 54, 53, 51, 48, 52, 55, 56, 59, 58, 57, 60, 61, 62, 63, 56, 57, 61, 60, 58, 59, 63, 62, 57, 58, 62, 61, 59, 56, 60, 63]
                rel material:binding = </GenericCDU/Looks/CabinetTrim>
                uniform token orientation = "rightHanded"
                point3f[] points = [(0.6095, -0.45, 0.05), (0.6215, -0.45, 0.05), (0.6215, -0.415, 0.05), (0.6095, -0.415, 0.05), (0.6095, -0.45, 2.122), (0.6215, -0.45, 2.122), (0.6215, -0.415, 2.122), (0.6095, -0.415, 2.122), (0.6095, 0.415, 0.05), (0.6215, 0.415, 0.05), (0.6215, 0.45, 0.05), (0.6095, 0.45, 0.05), (0.6095, 0.415, 2.122), (0.6215, 0.415, 2.122), (0.6215, 0.45, 2.122), (0.6095, 0.45, 2.122), (0.6095, -0.415, 2.087), (0.6215, -0.415, 2.087), (0.6215, 0.415, 2.087), (0.6095, 0.415, 2.087), (0.6095, -0.415, 2.122), (0.6215, -0.415, 2.122), (0.6215, 0.415, 2.122), (0.6095, 0.415, 2.122), (0.6095, -0.415, 0.05), (0.6215, -0.415, 0.05), (0.6215, 0.415, 0.05), (0.6095, 0.415, 0.05), (0.6095, -0.415, 0.085), (0.6215, -0.415, 0.085), (0.6215, 0.415, 0.085), (0.6095, 0.415, 0.085), (-0.6215, -0.45, 0.05), (-0.6095, -0.45, 0.05), (-0.6095, -0.415, 0.05), (-0.6215, -0.415, 0.05), (-0.6215, -0.45, 2.122), (-0.6095, -0.45, 2.122), (-0.6095, -0.415, 2.122), (-0.6215, -0.415, 2.122), (-0.6215, 0.415, 0.05), (-0.6095, 0.415, 0.05), (-0.6095, 0.45, 0.05), (-0.6215, 0.45, 0.05), (-0.6215, 0.415, 2.122), (-0.6095, 0.415, 2.122), (-0.6095, 0.45, 2.122), (-0.6215, 0.45, 2.122), (-0.6215, -0.415, 2.087), (-0.6095, -0.415, 2.087), (-0.6095, 0.415, 2.087), (-0.6215, 0.415, 2.087), (-0.6215, -0.415, 2.122), (-0.6095, -0.415, 2.122), (-0.6095, 0.415, 2.122), (-0.6215, 0.415, 2.122), (-0.6215, -0.415, 0.05), (-0.6095, -0.415, 0.05), (-0.6095, 0.415, 0.05), (-0.6215, 0.415, 0.05), (-0.6215, -0.415, 0.085), (-0.6095, -0.415, 0.085), (-0.6095, 0.415, 0.085), (-0.6215, 0.415, 0.085)]
                uniform token subdivisionScheme = "none"
            }
        }

        def "Front"
        {
            def Mesh "Handle" (
                prepend apiSchemas = ["MaterialBindingAPI"]
            )
            {
                float3[] extent = [(0.6095, 0.285, 1.1061), (0.6195, 0.305, 1.2661)]
                int[] faceVertexCounts = [4, 4, 4, 4, 4, 4]
                int[] faceVertexIndices = [0, 3, 2, 1, 4, 5, 6, 7, 0, 1, 5, 4, 2, 3, 7, 6, 1, 2, 6, 5, 3, 0, 4, 7]
                rel material:binding = </GenericCDU/Looks/Handle>
                uniform token orientation = "rightHanded"
                point3f[] points = [(0.6095, 0.285, 1.1061), (0.6195, 0.285, 1.1061), (0.6195, 0.305, 1.1061), (0.6095, 0.305, 1.1061), (0.6095, 0.285, 1.2661), (0.6195, 0.285, 1.2661), (0.6195, 0.305, 1.2661), (0.6095, 0.305, 1.2661)]
                uniform token subdivisionScheme = "none"
            }

            def Mesh "DoorLine" (
                prepend apiSchemas = ["MaterialBindingAPI"]
            )
            {
                float3[] extent = [(0.6095, -0.415, 0.085), (0.6105, 0.415, 2.087)]
                int[] faceVertexCounts = [4, 4, 4, 4, 4, 4, 4, 4, 4, 4, 4, 4]
                int[] faceVertexIndices = [0, 3, 2, 1, 4, 5, 6, 7, 0, 1, 5, 4, 2, 3, 7, 6, 1, 2, 6, 5, 3, 0, 4, 7, 8, 11, 10, 9, 12, 13, 14, 15, 8, 9, 13, 12, 10, 11, 15, 14, 9, 10, 14, 13, 11, 8, 12, 15]
                rel material:binding = </GenericCDU/Looks/DoorLine>
                uniform token orientation = "rightHanded"
                point3f[] points = [(0.6095, -0.415, 0.085), (0.6105, -0.415, 0.085), (0.6105, 0.415, 0.085), (0.6095, 0.415, 0.085), (0.6095, -0.415, 0.089), (0.6105, -0.415, 0.089), (0.6105, 0.415, 0.089), (0.6095, 0.415, 0.089), (0.6095, -0.415, 2.083), (0.6105, -0.415, 2.083), (0.6105, 0.415, 2.083), (0.6095, 0.415, 2.083), (0.6095, -0.415, 2.087), (0.6105, -0.415, 2.087), (0.6105, 0.415, 2.087), (0.6095, 0.415, 2.087)]
                uniform token subdivisionScheme = "none"
            }

            def Mesh "LouvreGap" (
                prepend apiSchemas = ["MaterialBindingAPI"]
            )
            {
                float3[] extent = [(0.6105, -0.2988, 0.205), (0.6105, 0.2158, 1.967)]
                int[] faceVertexCounts = [4, 4]
                int[] faceVertexIndices = [0, 1, 2, 3, 4, 5, 6, 7]
                rel material:binding = </GenericCDU/Looks/LouvreGap>
                uniform token orientation = "rightHanded"
                point3f[] points = [(0.6105, -0.2988, 0.205), (0.6105, 0.2158, 0.205), (0.6105, 0.2158, 0.605), (0.6105, -0.2988, 0.605), (0.6105, -0.2988, 1.667), (0.6105, 0.2158, 1.667), (0.6105, 0.2158, 1.967), (0.6105, -0.2988, 1.967)]
                uniform token subdivisionScheme = "none"
            }

            def Mesh "Louvre" (
                prepend apiSchemas = ["MaterialBindingAPI"]
            )
            {
                float3[] extent = [(0.6105, -0.293654, 0.21192308), (0.6175, 0.210654, 1.96025)]
                int[] faceVertexCounts = [4, 4, 4, 4, 4, 4, 4, 4, 4, 4, 4, 4, 4, 4, 4, 4, 4, 4, 4, 4, 4, 4, 4, 4, 4, 4, 4, 4, 4, 4, 4, 4, 4, 4, 4, 4, 4, 4, 4, 4, 4, 4, 4, 4, 4, 4, 4, 4, 4, 4, 4, 4, 4, 4, 4, 4, 4, 4, 4, 4, 4, 4, 4, 4, 4, 4, 4, 4, 4, 4, 4, 4, 4, 4, 4, 4, 4, 4, 4, 4, 4, 4, 4, 4, 4, 4, 4, 4, 4, 4, 4, 4, 4, 4, 4, 4, 4, 4, 4, 4, 4, 4, 4, 4, 4, 4, 4, 4, 4, 4, 4, 4, 4, 4, 4, 4, 4, 4, 4, 4, 4, 4, 4, 4, 4, 4, 4, 4, 4, 4, 4, 4, 4, 4, 4, 4, 4, 4]
                int[] faceVertexIndices = [0, 3, 2, 1, 4, 5, 6, 7, 0, 1, 5, 4, 2, 3, 7, 6, 1, 2, 6, 5, 3, 0, 4, 7, 8, 11, 10, 9, 12, 13, 14, 15, 8, 9, 13, 12, 10, 11, 15, 14, 9, 10, 14, 13, 11, 8, 12, 15, 16, 19, 18, 17, 20, 21, 22, 23, 16, 17, 21, 20, 18, 19, 23, 22, 17, 18, 22, 21, 19, 16, 20, 23, 24, 27, 26, 25, 28, 29, 30, 31, 24, 25, 29, 28, 26, 27, 31, 30, 25, 26, 30, 29, 27, 24, 28, 31, 32, 35, 34, 33, 36, 37, 38, 39, 32, 33, 37, 36, 34, 35, 39, 38, 33, 34, 38, 37, 35, 32, 36, 39, 40, 43, 42, 41, 44, 45, 46, 47, 40, 41, 45, 44, 42, 43, 47, 46, 41, 42, 46, 45, 43, 40, 44, 47, 48, 51, 50, 49, 52, 53, 54, 55, 48, 49, 53, 52, 50, 51, 55, 54, 49, 50, 54, 53, 51, 48, 52, 55, 56, 59, 58, 57, 60, 61, 62, 63, 56, 57, 61, 60, 58, 59, 63, 62, 57, 58, 62, 61, 59, 56, 60, 63, 64, 67, 66, 65, 68, 69, 70, 71, 64, 65, 69, 68, 66, 67, 71, 70, 65, 66, 70, 69, 67, 64, 68, 71, 72, 75, 74, 73, 76, 77, 78, 79, 72, 73, 77, 76, 74, 75, 79, 78, 73, 74, 78, 77, 75, 72, 76, 79, 80, 83, 82, 81, 84, 85, 86, 87, 80, 81, 85, 84, 82, 83, 87, 86, 81, 82, 86, 85, 83, 80, 84, 87, 88, 91, 90, 89, 92, 93, 94, 95, 88, 89, 93, 92, 90, 91, 95, 94, 89, 90, 94, 93, 91, 88, 92, 95, 96, 99, 98, 97, 100, 101, 102, 103, 96, 97, 101, 100, 98, 99, 103, 102, 97, 98, 102, 101, 99, 96, 100, 103, 104, 107, 106, 105, 108, 109, 110, 111, 104, 105, 109, 108, 106, 107, 111, 110, 105, 106, 110, 109, 107, 104, 108, 111, 112, 115, 114, 113, 116, 117, 118, 119, 112, 113, 117, 116, 114, 115, 119, 118, 113, 114, 118, 117, 115, 112, 116, 119, 120, 123, 122, 121, 124, 125, 126, 127, 120, 121, 125, 124, 122, 123, 127, 126, 121, 122, 126, 125, 123, 120, 124, 127, 128, 131, 130, 129, 132, 133, 134, 135, 128, 129, 133, 132, 130, 131, 135, 134, 129, 130, 134, 133, 131, 128, 132, 135, 136, 139, 138, 137, 140, 141, 142, 143, 136, 137, 141, 140, 138, 139, 143, 142, 137, 138, 142, 141, 139, 136, 140, 143, 144, 147, 146, 145, 148, 149, 150, 151, 144, 145, 149, 148, 146, 147, 151, 150, 145, 146, 150, 149, 147, 144, 148, 151, 152, 155, 154, 153, 156, 157, 158, 159, 152, 153, 157, 156, 154, 155, 159, 158, 153, 154, 158, 157, 155, 152, 156, 159, 160, 163, 162, 161, 164, 165, 166, 167, 160, 161, 165, 164, 162, 163, 167, 166, 161, 162, 166, 165, 163, 160, 164, 167, 168, 171, 170, 169, 172, 173, 174, 175, 168, 169, 173, 172, 170, 171, 175, 174, 169, 170, 174, 173, 171, 168, 172, 175, 176, 179, 178, 177, 180, 181, 182, 183, 176, 177, 181, 180, 178, 179, 183, 182, 177, 178, 182, 181, 179, 176, 180, 183]
                rel material:binding = </GenericCDU/Looks/Louvre>
                uniform token orientation = "rightHanded"
                point3f[] points = [(0.6105, -0.293654, 0.21192308), (0.6175, -0.293654, 0.21192308), (0.6175, 0.210654, 0.21192308), (0.6105, 0.210654, 0.21192308), (0.6105, -0.293654, 0.22884615), (0.6175, -0.293654, 0.22884615), (0.6175, 0.210654, 0.22884615), (0.6105, 0.210654, 0.22884615), (0.6105, -0.293654, 0.2426923), (0.6175, -0.293654, 0.2426923), (0.6175, 0.210654, 0.2426923), (0.6105, 0.210654, 0.2426923), (0.6105, -0.293654, 0.2596154), (0.6175, -0.293654, 0.2596154), (0.6175, 0.210654, 0.2596154), (0.6105, 0.210654, 0.2596154), (0.6105, -0.293654, 0.27346155), (0.6175, -0.293654, 0.27346155), (0.6175, 0.210654, 0.27346155), (0.6105, 0.210654, 0.27346155), (0.6105, -0.293654, 0.29038462), (0.6175, -0.293654, 0.29038462), (0.6175, 0.210654, 0.29038462), (0.6105, 0.210654, 0.29038462), (0.6105, -0.293654, 0.30423078), (0.6175, -0.293654, 0.30423078), (0.6175, 0.210654, 0.30423078), (0.6105, 0.210654, 0.30423078), (0.6105, -0.293654, 0.32115385), (0.6175, -0.293654, 0.32115385), (0.6175, 0.210654, 0.32115385), (0.6105, 0.210654, 0.32115385), (0.6105, -0.293654, 0.335), (0.6175, -0.293654, 0.335), (0.6175, 0.210654, 0.335), (0.6105, 0.210654, 0.335), (0.6105, -0.293654, 0.35192308), (0.6175, -0.293654, 0.35192308), (0.6175, 0.210654, 0.35192308), (0.6105, 0.210654, 0.35192308), (0.6105, -0.293654, 0.36576924), (0.6175, -0.293654, 0.36576924), (0.6175, 0.210654, 0.36576924), (0.6105, 0.210654, 0.36576924), (0.6105, -0.293654, 0.3826923), (0.6175, -0.293654, 0.3826923), (0.6175, 0.210654, 0.3826923), (0.6105, 0.210654, 0.3826923), (0.6105, -0.293654, 0.39653847), (0.6175, -0.293654, 0.39653847), (0.6175, 0.210654, 0.39653847), (0.6105, 0.210654, 0.39653847), (0.6105, -0.293654, 0.41346154), (0.6175, -0.293654, 0.41346154), (0.6175, 0.210654, 0.41346154), (0.6105, 0.210654, 0.41346154), (0.6105, -0.293654, 0.4273077), (0.6175, -0.293654, 0.4273077), (0.6175, 0.210654, 0.4273077), (0.6105, 0.210654, 0.4273077), (0.6105, -0.293654, 0.44423077), (0.6175, -0.293654, 0.44423077), (0.6175, 0.210654, 0.44423077), (0.6105, 0.210654, 0.44423077), (0.6105, -0.293654, 0.45807692), (0.6175, -0.293654, 0.45807692), (0.6175, 0.210654, 0.45807692), (0.6105, 0.210654, 0.45807692), (0.6105, -0.293654, 0.475), (0.6175, -0.293654, 0.475), (0.6175, 0.210654, 0.475), (0.6105, 0.210654, 0.475), (0.6105, -0.293654, 0.48884615), (0.6175, -0.293654, 0.48884615), (0.6175, 0.210654, 0.48884615), (0.6105, 0.210654, 0.48884615), (0.6105, -0.293654, 0.50576925), (0.6175, -0.293654, 0.50576925), (0.6175, 0.210654, 0.50576925), (0.6105, 0.210654, 0.50576925), (0.6105, -0.293654, 0.5196154), (0.6175, -0.293654, 0.5196154), (0.6175, 0.210654, 0.5196154), (0.6105, 0.210654, 0.5196154), (0.6105, -0.293654, 0.5365385), (0.6175, -0.293654, 0.5365385), (0.6175, 0.210654, 0.5365385), (0.6105, 0.210654, 0.5365385), (0.6105, -0.293654, 0.55038464), (0.6175, -0.293654, 0.55038464), (0.6175, 0.210654, 0.55038464), (0.6105, 0.210654, 0.55038464), (0.6105, -0.293654, 0.5673077), (0.6175, -0.293654, 0.5673077), (0.6175, 0.210654, 0.5673077), (0.6105, 0.210654, 0.5673077), (0.6105, -0.293654, 0.58115387), (0.6175, -0.293654, 0.58115387), (0.6175, 0.210654, 0.58115387), (0.6105, 0.210654, 0.58115387), (0.6105, -0.293654, 0.59807694), (0.6175, -0.293654, 0.59807694), (0.6175, 0.210654, 0.59807694), (0.6105, 0.210654, 0.59807694), (0.6105, -0.293654, 1.67375), (0.6175, -0.293654, 1.67375), (0.6175, 0.210654, 1.67375), (0.6105, 0.210654, 1.67375), (0.6105, -0.293654, 1.69025), (0.6175, -0.293654, 1.69025), (0.6175, 0.210654, 1.69025), (0.6105, 0.210654, 1.69025), (0.6105, -0.293654, 1.70375), (0.6175, -0.293654, 1.70375), (0.6175, 0.210654, 1.70375), (0.6105, 0.210654, 1.70375), (0.6105, -0.293654, 1.72025), (0.6175, -0.293654, 1.72025), (0.6175, 0.210654, 1.72025), (0.6105, 0.210654, 1.72025), (0.6105, -0.293654, 1.73375), (0.6175, -0.293654, 1.73375), (0.6175, 0.210654, 1.73375), (0.6105, 0.210654, 1.73375), (0.6105, -0.293654, 1.75025), (0.6175, -0.293654, 1.75025), (0.6175, 0.210654, 1.75025), (0.6105, 0.210654, 1.75025), (0.6105, -0.293654, 1.76375), (0.6175, -0.293654, 1.76375), (0.6175, 0.210654, 1.76375), (0.6105, 0.210654, 1.76375), (0.6105, -0.293654, 1.78025), (0.6175, -0.293654, 1.78025), (0.6175, 0.210654, 1.78025), (0.6105, 0.210654, 1.78025), (0.6105, -0.293654, 1.79375), (0.6175, -0.293654, 1.79375), (0.6175, 0.210654, 1.79375), (0.6105, 0.210654, 1.79375), (0.6105, -0.293654, 1.81025), (0.6175, -0.293654, 1.81025), (0.6175, 0.210654, 1.81025), (0.6105, 0.210654, 1.81025), (0.6105, -0.293654, 1.82375), (0.6175, -0.293654, 1.82375), (0.6175, 0.210654, 1.82375), (0.6105, 0.210654, 1.82375), (0.6105, -0.293654, 1.84025), (0.6175, -0.293654, 1.84025), (0.6175, 0.210654, 1.84025), (0.6105, 0.210654, 1.84025), (0.6105, -0.293654, 1.85375), (0.6175, -0.293654, 1.85375), (0.6175, 0.210654, 1.85375), (0.6105, 0.210654, 1.85375), (0.6105, -0.293654, 1.87025), (0.6175, -0.293654, 1.87025), (0.6175, 0.210654, 1.87025), (0.6105, 0.210654, 1.87025), (0.6105, -0.293654, 1.88375), (0.6175, -0.293654, 1.88375), (0.6175, 0.210654, 1.88375), (0.6105, 0.210654, 1.88375), (0.6105, -0.293654, 1.90025), (0.6175, -0.293654, 1.90025), (0.6175, 0.210654, 1.90025), (0.6105, 0.210654, 1.90025), (0.6105, -0.293654, 1.91375), (0.6175, -0.293654, 1.91375), (0.6175, 0.210654, 1.91375), (0.6105, 0.210654, 1.91375), (0.6105, -0.293654, 1.93025), (0.6175, -0.293654, 1.93025), (0.6175, 0.210654, 1.93025), (0.6105, 0.210654, 1.93025), (0.6105, -0.293654, 1.94375), (0.6175, -0.293654, 1.94375), (0.6175, 0.210654, 1.94375), (0.6105, 0.210654, 1.94375), (0.6105, -0.293654, 1.96025), (0.6175, -0.293654, 1.96025), (0.6175, 0.210654, 1.96025), (0.6105, 0.210654, 1.96025)]
                uniform token subdivisionScheme = "none"
            }

            def Mesh "StatusLamp" (
                prepend apiSchemas = ["MaterialBindingAPI"]
            )
            {
                float3[] extent = [(0.6095, -0.0665, 1.461), (0.6155, -0.0165, 1.473)]
                int[] faceVertexCounts = [4, 4, 4, 4, 4, 4]
                int[] faceVertexIndices = [0, 3, 2, 1, 4, 5, 6, 7, 0, 1, 5, 4, 2, 3, 7, 6, 1, 2, 6, 5, 3, 0, 4, 7]
                rel material:binding = </GenericCDU/Looks/StatusLamp>
                uniform token orientation = "rightHanded"
                point3f[] points = [(0.6095, -0.0665, 1.461), (0.6155, -0.0665, 1.461), (0.6155, -0.0165, 1.461), (0.6095, -0.0165, 1.461), (0.6095, -0.0665, 1.473), (0.6155, -0.0665, 1.473), (0.6155, -0.0165, 1.473), (0.6095, -0.0165, 1.473)]
                uniform token subdivisionScheme = "none"
            }
        }

        def "Rear"
        {
            def Mesh "Handle" (
                prepend apiSchemas = ["MaterialBindingAPI"]
            )
            {
                float3[] extent = [(-0.6195, 0.285, 1.1061), (-0.6095, 0.305, 1.2661)]
                int[] faceVertexCounts = [4, 4, 4, 4, 4, 4]
                int[] faceVertexIndices = [0, 3, 2, 1, 4, 5, 6, 7, 0, 1, 5, 4, 2, 3, 7, 6, 1, 2, 6, 5, 3, 0, 4, 7]
                rel material:binding = </GenericCDU/Looks/Handle>
                uniform token orientation = "rightHanded"
                point3f[] points = [(-0.6195, 0.285, 1.1061), (-0.6095, 0.285, 1.1061), (-0.6095, 0.305, 1.1061), (-0.6195, 0.305, 1.1061), (-0.6195, 0.285, 1.2661), (-0.6095, 0.285, 1.2661), (-0.6095, 0.305, 1.2661), (-0.6195, 0.305, 1.2661)]
                uniform token subdivisionScheme = "none"
            }

            def Mesh "DoorLine" (
                prepend apiSchemas = ["MaterialBindingAPI"]
            )
            {
                float3[] extent = [(-0.6105, -0.415, 0.085), (-0.6095, 0.415, 2.087)]
                int[] faceVertexCounts = [4, 4, 4, 4, 4, 4, 4, 4, 4, 4, 4, 4]
                int[] faceVertexIndices = [0, 3, 2, 1, 4, 5, 6, 7, 0, 1, 5, 4, 2, 3, 7, 6, 1, 2, 6, 5, 3, 0, 4, 7, 8, 11, 10, 9, 12, 13, 14, 15, 8, 9, 13, 12, 10, 11, 15, 14, 9, 10, 14, 13, 11, 8, 12, 15]
                rel material:binding = </GenericCDU/Looks/DoorLine>
                uniform token orientation = "rightHanded"
                point3f[] points = [(-0.6105, -0.415, 0.085), (-0.6095, -0.415, 0.085), (-0.6095, 0.415, 0.085), (-0.6105, 0.415, 0.085), (-0.6105, -0.415, 0.089), (-0.6095, -0.415, 0.089), (-0.6095, 0.415, 0.089), (-0.6105, 0.415, 0.089), (-0.6105, -0.415, 2.083), (-0.6095, -0.415, 2.083), (-0.6095, 0.415, 2.083), (-0.6105, 0.415, 2.083), (-0.6105, -0.415, 2.087), (-0.6095, -0.415, 2.087), (-0.6095, 0.415, 2.087), (-0.6105, 0.415, 2.087)]
                uniform token subdivisionScheme = "none"
            }

            def Mesh "LouvreGap" (
                prepend apiSchemas = ["MaterialBindingAPI"]
            )
            {
                float3[] extent = [(-0.6105, -0.2988, 0.53545), (-0.6105, 0.2158, 1.63655)]
                int[] faceVertexCounts = [4]
                int[] faceVertexIndices = [0, 3, 2, 1]
                rel material:binding = </GenericCDU/Looks/LouvreGap>
                uniform token orientation = "rightHanded"
                point3f[] points = [(-0.6105, -0.2988, 0.53545), (-0.6105, 0.2158, 0.53545), (-0.6105, 0.2158, 1.63655), (-0.6105, -0.2988, 1.63655)]
                uniform token subdivisionScheme = "none"
            }

            def Mesh "Louvre" (
                prepend apiSchemas = ["MaterialBindingAPI"]
            )
            {
                float3[] extent = [(-0.6175, -0.293654, 0.5423319), (-0.6105, 0.210654, 1.6296681)]
                int[] faceVertexCounts = [4, 4, 4, 4, 4, 4, 4, 4, 4, 4, 4, 4, 4, 4, 4, 4, 4, 4, 4, 4, 4, 4, 4, 4, 4, 4, 4, 4, 4, 4, 4, 4, 4, 4, 4, 4, 4, 4, 4, 4, 4, 4, 4, 4, 4, 4, 4, 4, 4, 4, 4, 4, 4, 4, 4, 4, 4, 4, 4, 4, 4, 4, 4, 4, 4, 4, 4, 4, 4, 4, 4, 4, 4, 4, 4, 4, 4, 4, 4, 4, 4, 4, 4, 4, 4, 4, 4, 4, 4, 4, 4, 4, 4, 4, 4, 4, 4, 4, 4, 4, 4, 4, 4, 4, 4, 4, 4, 4, 4, 4, 4, 4, 4, 4, 4, 4, 4, 4, 4, 4, 4, 4, 4, 4, 4, 4, 4, 4, 4, 4, 4, 4, 4, 4, 4, 4, 4, 4, 4, 4, 4, 4, 4, 4, 4, 4, 4, 4, 4, 4, 4, 4, 4, 4, 4, 4, 4, 4, 4, 4, 4, 4, 4, 4, 4, 4, 4, 4, 4, 4, 4, 4, 4, 4, 4, 4, 4, 4, 4, 4, 4, 4, 4, 4, 4, 4, 4, 4, 4, 4, 4, 4, 4, 4, 4, 4, 4, 4, 4, 4, 4, 4, 4, 4, 4, 4, 4, 4, 4, 4, 4, 4, 4, 4, 4, 4]
                int[] faceVertexIndices = [0, 3, 2, 1, 4, 5, 6, 7, 0, 1, 5, 4, 2, 3, 7, 6, 1, 2, 6, 5, 3, 0, 4, 7, 8, 11, 10, 9, 12, 13, 14, 15, 8, 9, 13, 12, 10, 11, 15, 14, 9, 10, 14, 13, 11, 8, 12, 15, 16, 19, 18, 17, 20, 21, 22, 23, 16, 17, 21, 20, 18, 19, 23, 22, 17, 18, 22, 21, 19, 16, 20, 23, 24, 27, 26, 25, 28, 29, 30, 31, 24, 25, 29, 28, 26, 27, 31, 30, 25, 26, 30, 29, 27, 24, 28, 31, 32, 35, 34, 33, 36, 37, 38, 39, 32, 33, 37, 36, 34, 35, 39, 38, 33, 34, 38, 37, 35, 32, 36, 39, 40, 43, 42, 41, 44, 45, 46, 47, 40, 41, 45, 44, 42, 43, 47, 46, 41, 42, 46, 45, 43, 40, 44, 47, 48, 51, 50, 49, 52, 53, 54, 55, 48, 49, 53, 52, 50, 51, 55, 54, 49, 50, 54, 53, 51, 48, 52, 55, 56, 59, 58, 57, 60, 61, 62, 63, 56, 57, 61, 60, 58, 59, 63, 62, 57, 58, 62, 61, 59, 56, 60, 63, 64, 67, 66, 65, 68, 69, 70, 71, 64, 65, 69, 68, 66, 67, 71, 70, 65, 66, 70, 69, 67, 64, 68, 71, 72, 75, 74, 73, 76, 77, 78, 79, 72, 73, 77, 76, 74, 75, 79, 78, 73, 74, 78, 77, 75, 72, 76, 79, 80, 83, 82, 81, 84, 85, 86, 87, 80, 81, 85, 84, 82, 83, 87, 86, 81, 82, 86, 85, 83, 80, 84, 87, 88, 91, 90, 89, 92, 93, 94, 95, 88, 89, 93, 92, 90, 91, 95, 94, 89, 90, 94, 93, 91, 88, 92, 95, 96, 99, 98, 97, 100, 101, 102, 103, 96, 97, 101, 100, 98, 99, 103, 102, 97, 98, 102, 101, 99, 96, 100, 103, 104, 107, 106, 105, 108, 109, 110, 111, 104, 105, 109, 108, 106, 107, 111, 110, 105, 106, 110, 109, 107, 104, 108, 111, 112, 115, 114, 113, 116, 117, 118, 119, 112, 113, 117, 116, 114, 115, 119, 118, 113, 114, 118, 117, 115, 112, 116, 119, 120, 123, 122, 121, 124, 125, 126, 127, 120, 121, 125, 124, 122, 123, 127, 126, 121, 122, 126, 125, 123, 120, 124, 127, 128, 131, 130, 129, 132, 133, 134, 135, 128, 129, 133, 132, 130, 131, 135, 134, 129, 130, 134, 133, 131, 128, 132, 135, 136, 139, 138, 137, 140, 141, 142, 143, 136, 137, 141, 140, 138, 139, 143, 142, 137, 138, 142, 141, 139, 136, 140, 143, 144, 147, 146, 145, 148, 149, 150, 151, 144, 145, 149, 148, 146, 147, 151, 150, 145, 146, 150, 149, 147, 144, 148, 151, 152, 155, 154, 153, 156, 157, 158, 159, 152, 153, 157, 156, 154, 155, 159, 158, 153, 154, 158, 157, 155, 152, 156, 159, 160, 163, 162, 161, 164, 165, 166, 167, 160, 161, 165, 164, 162, 163, 167, 166, 161, 162, 166, 165, 163, 160, 164, 167, 168, 171, 170, 169, 172, 173, 174, 175, 168, 169, 173, 172, 170, 171, 175, 174, 169, 170, 174, 173, 171, 168, 172, 175, 176, 179, 178, 177, 180, 181, 182, 183, 176, 177, 181, 180, 178, 179, 183, 182, 177, 178, 182, 181, 179, 176, 180, 183, 184, 187, 186, 185, 188, 189, 190, 191, 184, 185, 189, 188, 186, 187, 191, 190, 185, 186, 190, 189, 187, 184, 188, 191, 192, 195, 194, 193, 196, 197, 198, 199, 192, 193, 197, 196, 194, 195, 199, 198, 193, 194, 198, 197, 195, 192, 196, 199, 200, 203, 202, 201, 204, 205, 206, 207, 200, 201, 205, 204, 202, 203, 207, 206, 201, 202, 206, 205, 203, 200, 204, 207, 208, 211, 210, 209, 212, 213, 214, 215, 208, 209, 213, 212, 210, 211, 215, 214, 209, 210, 214, 213, 211, 208, 212, 215, 216, 219, 218, 217, 220, 221, 222, 223, 216, 217, 221, 220, 218, 219, 223, 222, 217, 218, 222, 221, 219, 216, 220, 223, 224, 227, 226, 225, 228, 229, 230, 231, 224, 225, 229, 228, 226, 227, 231, 230, 225, 226, 230, 229, 227, 224, 228, 231, 232, 235, 234, 233, 236, 237, 238, 239, 232, 233, 237, 236, 234, 235, 239, 238, 233, 234, 238, 237, 235, 232, 236, 239, 240, 243, 242, 241, 244, 245, 246, 247, 240, 241, 245, 244, 242, 243, 247, 246, 241, 242, 246, 245, 243, 240, 244, 247, 248, 251, 250, 249, 252, 253, 254, 255, 248, 249, 253, 252, 250, 251, 255, 254, 249, 250, 254, 253, 251, 248, 252, 255, 256, 259, 258, 257, 260, 261, 262, 263, 256, 257, 261, 260, 258, 259, 263, 262, 257, 258, 262, 261, 259, 256, 260, 263, 264, 267, 266, 265, 268, 269, 270, 271, 264, 265, 269, 268, 266, 267, 271, 270, 265, 266, 270, 269, 267, 264, 268, 271, 272, 275, 274, 273, 276, 277, 278, 279, 272, 273, 277, 276, 274, 275, 279, 278, 273, 274, 278, 277, 275, 272, 276, 279, 280, 283, 282, 281, 284, 285, 286, 287, 280, 281, 285, 284, 282, 283, 287, 286, 281, 282, 286, 285, 283, 280, 284, 287]
                rel material:binding = </GenericCDU/Looks/Louvre>
                uniform token orientation = "rightHanded"
                point3f[] points = [(-0.6175, -0.293654, 0.5423319), (-0.6105, -0.293654, 0.5423319), (-0.6105, 0.210654, 0.5423319), (-0.6175, 0.210654, 0.5423319), (-0.6175, -0.293654, 0.5591542), (-0.6105, -0.293654, 0.5591542), (-0.6105, 0.210654, 0.5591542), (-0.6175, 0.210654, 0.5591542), (-0.6175, -0.293654, 0.572918), (-0.6105, -0.293654, 0.572918), (-0.6105, 0.210654, 0.572918), (-0.6175, 0.210654, 0.572918), (-0.6175, -0.293654, 0.58974034), (-0.6105, -0.293654, 0.58974034), (-0.6105, 0.210654, 0.58974034), (-0.6175, 0.210654, 0.58974034), (-0.6175, -0.293654, 0.6035041), (-0.6105, -0.293654, 0.6035041), (-0.6105, 0.210654, 0.6035041), (-0.6175, 0.210654, 0.6035041), (-0.6175, -0.293654, 0.62032646), (-0.6105, -0.293654, 0.62032646), (-0.6105, 0.210654, 0.62032646), (-0.6175, 0.210654, 0.62032646), (-0.6175, -0.293654, 0.6340902), (-0.6105, -0.293654, 0.6340902), (-0.6105, 0.210654, 0.6340902), (-0.6175, 0.210654, 0.6340902), (-0.6175, -0.293654, 0.6509126), (-0.6105, -0.293654, 0.6509126), (-0.6105, 0.210654, 0.6509126), (-0.6175, 0.210654, 0.6509126), (-0.6175, -0.293654, 0.6646763), (-0.6105, -0.293654, 0.6646763), (-0.6105, 0.210654, 0.6646763), (-0.6175, 0.210654, 0.6646763), (-0.6175, -0.293654, 0.6814987), (-0.6105, -0.293654, 0.6814987), (-0.6105, 0.210654, 0.6814987), (-0.6175, 0.210654, 0.6814987), (-0.6175, -0.293654, 0.69526243), (-0.6105, -0.293654, 0.69526243), (-0.6105, 0.210654, 0.69526243), (-0.6175, 0.210654, 0.69526243), (-0.6175, -0.293654, 0.7120848), (-0.6105, -0.293654, 0.7120848), (-0.6105, 0.210654, 0.7120848), (-0.6175, 0.210654, 0.7120848), (-0.6175, -0.293654, 0.72584856), (-0.6105, -0.293654, 0.72584856), (-0.6105, 0.210654, 0.72584856), (-0.6175, 0.210654, 0.72584856), (-0.6175, -0.293654, 0.7426709), (-0.6105, -0.293654, 0.7426709), (-0.6105, 0.210654, 0.7426709), (-0.6175, 0.210654, 0.7426709), (-0.6175, -0.293654, 0.7564347), (-0.6105, -0.293654, 0.7564347), (-0.6105, 0.210654, 0.7564347), (-0.6175, 0.210654, 0.7564347), (-0.6175, -0.293654, 0.773257), (-0.6105, -0.293654, 0.773257), (-0.6105, 0.210654, 0.773257), (-0.6175, 0.210654, 0.773257), (-0.6175, -0.293654, 0.78702074), (-0.6105, -0.293654, 0.78702074), (-0.6105, 0.210654, 0.78702074), (-0.6175, 0.210654, 0.78702074), (-0.6175, -0.293654, 0.80384314), (-0.6105, -0.293654, 0.80384314), (-0.6105, 0.210654, 0.80384314), (-0.6175, 0.210654, 0.80384314), (-0.6175, -0.293654, 0.81760687), (-0.6105, -0.293654, 0.81760687), (-0.6105, 0.210654, 0.81760687), (-0.6175, 0.210654, 0.81760687), (-0.6175, -0.293654, 0.83442926), (-0.6105, -0.293654, 0.83442926), (-0.6105, 0.210654, 0.83442926), (-0.6175, 0.210654, 0.83442926), (-0.6175, -0.293654, 0.848193), (-0.6105, -0.293654, 0.848193), (-0.6105, 0.210654, 0.848193), (-0.6175, 0.210654, 0.848193), (-0.6175, -0.293654, 0.8650153), (-0.6105, -0.293654, 0.8650153), (-0.6105, 0.210654, 0.8650153), (-0.6175, 0.210654, 0.8650153), (-0.6175, -0.293654, 0.8787791), (-0.6105, -0.293654, 0.8787791), (-0.6105, 0.210654, 0.8787791), (-0.6175, 0.210654, 0.8787791), (-0.6175, -0.293654, 0.89560145), (-0.6105, -0.293654, 0.89560145), (-0.6105, 0.210654, 0.89560145), (-0.6175, 0.210654, 0.89560145), (-0.6175, -0.293654, 0.90936524), (-0.6105, -0.293654, 0.90936524), (-0.6105, 0.210654, 0.90936524), (-0.6175, 0.210654, 0.90936524), (-0.6175, -0.293654, 0.9261876), (-0.6105, -0.293654, 0.9261876), (-0.6105, 0.210654, 0.9261876), (-0.6175, 0.210654, 0.9261876), (-0.6175, -0.293654, 0.9399513), (-0.6105, -0.293654, 0.9399513), (-0.6105, 0.210654, 0.9399513), (-0.6175, 0.210654, 0.9399513), (-0.6175, -0.293654, 0.9567737), (-0.6105, -0.293654, 0.9567737), (-0.6105, 0.210654, 0.9567737), (-0.6175, 0.210654, 0.9567737), (-0.6175, -0.293654, 0.9705374), (-0.6105, -0.293654, 0.9705374), (-0.6105, 0.210654, 0.9705374), (-0.6175, 0.210654, 0.9705374), (-0.6175, -0.293654, 0.98735976), (-0.6105, -0.293654, 0.98735976), (-0.6105, 0.210654, 0.98735976), (-0.6175, 0.210654, 0.98735976), (-0.6175, -0.293654, 1.0011235), (-0.6105, -0.293654, 1.0011235), (-0.6105, 0.210654, 1.0011235), (-0.6175, 0.210654, 1.0011235), (-0.6175, -0.293654, 1.0179459), (-0.6105, -0.293654, 1.0179459), (-0.6105, 0.210654, 1.0179459), (-0.6175, 0.210654, 1.0179459), (-0.6175, -0.293654, 1.0317097), (-0.6105, -0.293654, 1.0317097), (-0.6105, 0.210654, 1.0317097), (-0.6175, 0.210654, 1.0317097), (-0.6175, -0.293654, 1.048532), (-0.6105, -0.293654, 1.048532), (-0.6105, 0.210654, 1.048532), (-0.6175, 0.210654, 1.048532), (-0.6175, -0.293654, 1.0622958), (-0.6105, -0.293654, 1.0622958), (-0.6105, 0.210654, 1.0622958), (-0.6175, 0.210654, 1.0622958), (-0.6175, -0.293654, 1.0791181), (-0.6105, -0.293654, 1.0791181), (-0.6105, 0.210654, 1.0791181), (-0.6175, 0.210654, 1.0791181), (-0.6175, -0.293654, 1.0928819), (-0.6105, -0.293654, 1.0928819), (-0.6105, 0.210654, 1.0928819), (-0.6175, 0.210654, 1.0928819), (-0.6175, -0.293654, 1.1097043), (-0.6105, -0.293654, 1.1097043), (-0.6105, 0.210654, 1.1097043), (-0.6175, 0.210654, 1.1097043), (-0.6175, -0.293654, 1.123468), (-0.6105, -0.293654, 1.123468), (-0.6105, 0.210654, 1.123468), (-0.6175, 0.210654, 1.123468), (-0.6175, -0.293654, 1.1402904), (-0.6105, -0.293654, 1.1402904), (-0.6105, 0.210654, 1.1402904), (-0.6175, 0.210654, 1.1402904), (-0.6175, -0.293654, 1.154054), (-0.6105, -0.293654, 1.154054), (-0.6105, 0.210654, 1.154054), (-0.6175, 0.210654, 1.154054), (-0.6175, -0.293654, 1.1708765), (-0.6105, -0.293654, 1.1708765), (-0.6105, 0.210654, 1.1708765), (-0.6175, 0.210654, 1.1708765), (-0.6175, -0.293654, 1.1846402), (-0.6105, -0.293654, 1.1846402), (-0.6105, 0.210654, 1.1846402), (-0.6175, 0.210654, 1.1846402), (-0.6175, -0.293654, 1.2014626), (-0.6105, -0.293654, 1.2014626), (-0.6105, 0.210654, 1.2014626), (-0.6175, 0.210654, 1.2014626), (-0.6175, -0.293654, 1.2152263), (-0.6105, -0.293654, 1.2152263), (-0.6105, 0.210654, 1.2152263), (-0.6175, 0.210654, 1.2152263), (-0.6175, -0.293654, 1.2320486), (-0.6105, -0.293654, 1.2320486), (-0.6105, 0.210654, 1.2320486), (-0.6175, 0.210654, 1.2320486), (-0.6175, -0.293654, 1.2458124), (-0.6105, -0.293654, 1.2458124), (-0.6105, 0.210654, 1.2458124), (-0.6175, 0.210654, 1.2458124), (-0.6175, -0.293654, 1.2626348), (-0.6105, -0.293654, 1.2626348), (-0.6105, 0.210654, 1.2626348), (-0.6175, 0.210654, 1.2626348), (-0.6175, -0.293654, 1.2763985), (-0.6105, -0.293654, 1.2763985), (-0.6105, 0.210654, 1.2763985), (-0.6175, 0.210654, 1.2763985), (-0.6175, -0.293654, 1.2932209), (-0.6105, -0.293654, 1.2932209), (-0.6105, 0.210654, 1.2932209), (-0.6175, 0.210654, 1.2932209), (-0.6175, -0.293654, 1.3069847), (-0.6105, -0.293654, 1.3069847), (-0.6105, 0.210654, 1.3069847), (-0.6175, 0.210654, 1.3069847), (-0.6175, -0.293654, 1.323807), (-0.6105, -0.293654, 1.323807), (-0.6105, 0.210654, 1.323807), (-0.6175, 0.210654, 1.323807), (-0.6175, -0.293654, 1.3375708), (-0.6105, -0.293654, 1.3375708), (-0.6105, 0.210654, 1.3375708), (-0.6175, 0.210654, 1.3375708), (-0.6175, -0.293654, 1.3543931), (-0.6105, -0.293654, 1.3543931), (-0.6105, 0.210654, 1.3543931), (-0.6175, 0.210654, 1.3543931), (-0.6175, -0.293654, 1.3681569), (-0.6105, -0.293654, 1.3681569), (-0.6105, 0.210654, 1.3681569), (-0.6175, 0.210654, 1.3681569), (-0.6175, -0.293654, 1.3849792), (-0.6105, -0.293654, 1.3849792), (-0.6105, 0.210654, 1.3849792), (-0.6175, 0.210654, 1.3849792), (-0.6175, -0.293654, 1.398743), (-0.6105, -0.293654, 1.398743), (-0.6105, 0.210654, 1.398743), (-0.6175, 0.210654, 1.398743), (-0.6175, -0.293654, 1.4155654), (-0.6105, -0.293654, 1.4155654), (-0.6105, 0.210654, 1.4155654), (-0.6175, 0.210654, 1.4155654), (-0.6175, -0.293654, 1.429329), (-0.6105, -0.293654, 1.429329), (-0.6105, 0.210654, 1.429329), (-0.6175, 0.210654, 1.429329), (-0.6175, -0.293654, 1.4461515), (-0.6105, -0.293654, 1.4461515), (-0.6105, 0.210654, 1.4461515), (-0.6175, 0.210654, 1.4461515), (-0.6175, -0.293654, 1.4599152), (-0.6105, -0.293654, 1.4599152), (-0.6105, 0.210654, 1.4599152), (-0.6175, 0.210654, 1.4599152), (-0.6175, -0.293654, 1.4767376), (-0.6105, -0.293654, 1.4767376), (-0.6105, 0.210654, 1.4767376), (-0.6175, 0.210654, 1.4767376), (-0.6175, -0.293654, 1.4905013), (-0.6105, -0.293654, 1.4905013), (-0.6105, 0.210654, 1.4905013), (-0.6175, 0.210654, 1.4905013), (-0.6175, -0.293654, 1.5073236), (-0.6105, -0.293654, 1.5073236), (-0.6105, 0.210654, 1.5073236), (-0.6175, 0.210654, 1.5073236), (-0.6175, -0.293654, 1.5210874), (-0.6105, -0.293654, 1.5210874), (-0.6105, 0.210654, 1.5210874), (-0.6175, 0.210654, 1.5210874), (-0.6175, -0.293654, 1.5379097), (-0.6105, -0.293654, 1.5379097), (-0.6105, 0.210654, 1.5379097), (-0.6175, 0.210654, 1.5379097), (-0.6175, -0.293654, 1.5516735), (-0.6105, -0.293654, 1.5516735), (-0.6105, 0.210654, 1.5516735), (-0.6175, 0.210654, 1.5516735), (-0.6175, -0.293654, 1.5684959), (-0.6105, -0.293654, 1.5684959), (-0.6105, 0.210654, 1.5684959), (-0.6175, 0.210654, 1.5684959), (-0.6175, -0.293654, 1.5822597), (-0.6105, -0.293654, 1.5822597), (-0.6105, 0.210654, 1.5822597), (-0.6175, 0.210654, 1.5822597), (-0.6175, -0.293654, 1.599082), (-0.6105, -0.293654, 1.599082), (-0.6105, 0.210654, 1.599082), (-0.6175, 0.210654, 1.599082), (-0.6175, -0.293654, 1.6128458), (-0.6105, -0.293654, 1.6128458), (-0.6105, 0.210654, 1.6128458), (-0.6175, 0.210654, 1.6128458), (-0.6175, -0.293654, 1.6296681), (-0.6105, -0.293654, 1.6296681), (-0.6105, 0.210654, 1.6296681), (-0.6175, 0.210654, 1.6296681)]
                uniform token subdivisionScheme = "none"
            }
        }

        def "Sides"
        {
            def Mesh "DoorLine" (
                prepend apiSchemas = ["MaterialBindingAPI"]
            )
            {
                float3[] extent = [(-0.5795, -0.4488, 0.73866665), (0.5795, 0.4488, 1.4333333)]
                int[] faceVertexCounts = [4, 4, 4, 4]
                int[] faceVertexIndices = [0, 1, 2, 3, 4, 5, 6, 7, 8, 11, 10, 9, 12, 15, 14, 13]
                rel material:binding = </GenericCDU/Looks/DoorLine>
                uniform token orientation = "rightHanded"
                point3f[] points = [(-0.5795, -0.4488, 0.73866665), (0.5795, -0.4488, 0.73866665), (0.5795, -0.4488, 0.74266666), (-0.5795, -0.4488, 0.74266666), (-0.5795, -0.4488, 1.4293333), (0.5795, -0.4488, 1.4293333), (0.5795, -0.4488, 1.4333333), (-0.5795, -0.4488, 1.4333333), (-0.5795, 0.4488, 0.73866665), (0.5795, 0.4488, 0.73866665), (0.5795, 0.4488, 0.74266666), (-0.5795, 0.4488, 0.74266666), (-0.5795, 0.4488, 1.4293333), (0.5795, 0.4488, 1.4293333), (0.5795, 0.4488, 1.4333333), (-0.5795, 0.4488, 1.4333333)]
                uniform token subdivisionScheme = "none"
            }
        }

        def "Top"
        {
            def Mesh "PipeSteel" (
                prepend apiSchemas = ["MaterialBindingAPI"]
            )
            {
                float3[] extent = [(-0.4109, -0.338, 2.122), (-0.3109, 0.338, 2.342)]
                int[] faceVertexCounts = [4, 4, 4, 4, 4, 4, 4, 4, 4, 4, 4, 4, 4, 4, 4, 4, 4, 4, 4, 4, 3, 3, 3, 3, 3, 3, 3, 3, 3, 3, 3, 3, 3, 3, 3, 3, 3, 3, 3, 3, 3, 3, 3, 3, 3, 3, 3, 3, 3, 3, 3, 3, 3, 3, 3, 3, 3, 3, 3, 3, 4, 4, 4, 4, 4, 4, 4, 4, 4, 4, 4, 4, 4, 4, 4, 4, 4, 4, 4, 4, 3, 3, 3, 3, 3, 3, 3, 3, 3, 3, 3, 3, 3, 3, 3, 3, 3, 3, 3, 3, 3, 3, 3, 3, 3, 3, 3, 3, 3, 3, 3, 3, 3, 3, 3, 3, 3, 3, 3, 3, 4, 4, 4, 4, 4, 4, 4, 4, 4, 4, 4, 4, 4, 4, 4, 4, 4, 4, 4, 4, 3, 3, 3, 3, 3, 3, 3, 3, 3, 3, 3, 3, 3, 3, 3, 3, 3, 3, 3, 3, 3, 3, 3, 3, 3, 3, 3, 3, 3, 3, 3, 3, 3, 3, 3, 3, 3, 3, 3, 3, 4, 4, 4, 4, 4, 4, 4, 4, 4, 4, 4, 4, 4, 4, 4, 4, 4, 4, 4, 4, 3, 3, 3, 3, 3, 3, 3, 3, 3, 3, 3, 3, 3, 3, 3, 3, 3, 3, 3, 3, 3, 3, 3, 3, 3, 3, 3, 3, 3, 3, 3, 3, 3, 3, 3, 3, 3, 3, 3, 3]
                int[] faceVertexIndices = [0, 1, 21, 20, 1, 2, 22, 21, 2, 3, 23, 22, 3, 4, 24, 23, 4, 5, 25, 24, 5, 6, 26, 25, 6, 7, 27, 26, 7, 8, 28, 27, 8, 9, 29, 28, 9, 10, 30, 29, 10, 11, 31, 30, 11, 12, 32, 31, 12, 13, 33, 32, 13, 14, 34, 33, 14, 15, 35, 34, 15, 16, 36, 35, 16, 17, 37, 36, 17, 18, 38, 37, 18, 19, 39, 38, 19, 0, 20, 39, 40, 1, 0, 41, 20, 21, 40, 2, 1, 41, 21, 22, 40, 3, 2, 41, 22, 23, 40, 4, 3, 41, 23, 24, 40, 5, 4, 41, 24, 25, 40, 6, 5, 41, 25, 26, 40, 7, 6, 41, 26, 27, 40, 8, 7, 41, 27, 28, 40, 9, 8, 41, 28, 29, 40, 10, 9, 41, 29, 30, 40, 11, 10, 41, 30, 31, 40, 12, 11, 41, 31, 32, 40, 13, 12, 41, 32, 33, 40, 14, 13, 41, 33, 34, 40, 15, 14, 41, 34, 35, 40, 16, 15, 41, 35, 36, 40, 17, 16, 41, 36, 37, 40, 18, 17, 41, 37, 38, 40, 19, 18, 41, 38, 39, 40, 0, 19, 41, 39, 20, 42, 43, 63, 62, 43, 44, 64, 63, 44, 45, 65, 64, 45, 46, 66, 65, 46, 47, 67, 66, 47, 48, 68, 67, 48, 49, 69, 68, 49, 50, 70, 69, 50, 51, 71, 70, 51, 52, 72, 71, 52, 53, 73, 72, 53, 54, 74, 73, 54, 55, 75, 74, 55, 56, 76, 75, 56, 57, 77, 76, 57, 58, 78, 77, 58, 59, 79, 78, 59, 60, 80, 79, 60, 61, 81, 80, 61, 42, 62, 81, 82, 43, 42, 83, 62, 63, 82, 44, 43, 83, 63, 64, 82, 45, 44, 83, 64, 65, 82, 46, 45, 83, 65, 66, 82, 47, 46, 83, 66, 67, 82, 48, 47, 83, 67, 68, 82, 49, 48, 83, 68, 69, 82, 50, 49, 83, 69, 70, 82, 51, 50, 83, 70, 71, 82, 52, 51, 83, 71, 72, 82, 53, 52, 83, 72, 73, 82, 54, 53, 83, 73, 74, 82, 55, 54, 83, 74, 75, 82, 56, 55, 83, 75, 76, 82, 57, 56, 83, 76, 77, 82, 58, 57, 83, 77, 78, 82, 59, 58, 83, 78, 79, 82, 60, 59, 83, 79, 80, 82, 61, 60, 83, 80, 81, 82, 42, 61, 83, 81, 62, 84, 85, 105, 104, 85, 86, 106, 105, 86, 87, 107, 106, 87, 88, 108, 107, 88, 89, 109, 108, 89, 90, 110, 109, 90, 91, 111, 110, 91, 92, 112, 111, 92, 93, 113, 112, 93, 94, 114, 113, 94, 95, 115, 114, 95, 96, 116, 115, 96, 97, 117, 116, 97, 98, 118, 117, 98, 99, 119, 118, 99, 100, 120, 119, 100, 101, 121, 120, 101, 102, 122, 121, 102, 103, 123, 122, 103, 84, 104, 123, 124, 85, 84, 125, 104, 105, 124, 86, 85, 125, 105, 106, 124, 87, 86, 125, 106, 107, 124, 88, 87, 125, 107, 108, 124, 89, 88, 125, 108, 109, 124, 90, 89, 125, 109, 110, 124, 91, 90, 125, 110, 111, 124, 92, 91, 125, 111, 112, 124, 93, 92, 125, 112, 113, 124, 94, 93, 125, 113, 114, 124, 95, 94, 125, 114, 115, 124, 96, 95, 125, 115, 116, 124, 97, 96, 125, 116, 117, 124, 98, 97, 125, 117, 118, 124, 99, 98, 125, 118, 119, 124, 100, 99, 125, 119, 120, 124, 101, 100, 125, 120, 121, 124, 102, 101, 125, 121, 122, 124, 103, 102, 125, 122, 123, 124, 84, 103, 125, 123, 104, 126, 127, 147, 146, 127, 128, 148, 147, 128, 129, 149, 148, 129, 130, 150, 149, 130, 131, 151, 150, 131, 132, 152, 151, 132, 133, 153, 152, 133, 134, 154, 153, 134, 135, 155, 154, 135, 136, 156, 155, 136, 137, 157, 156, 137, 138, 158, 157, 138, 139, 159, 158, 139, 140, 160, 159, 140, 141, 161, 160, 141, 142, 162, 161, 142, 143, 163, 162, 143, 144, 164, 163, 144, 145, 165, 164, 145, 126, 146, 165, 166, 127, 126, 167, 146, 147, 166, 128, 127, 167, 147, 148, 166, 129, 128, 167, 148, 149, 166, 130, 129, 167, 149, 150, 166, 131, 130, 167, 150, 151, 166, 132, 131, 167, 151, 152, 166, 133, 132, 167, 152, 153, 166, 134, 133, 167, 153, 154, 166, 135, 134, 167, 154, 155, 166, 136, 135, 167, 155, 156, 166, 137, 136, 167, 156, 157, 166, 138, 137, 167, 157, 158, 166, 139, 138, 167, 158, 159, 166, 140, 139, 167, 159, 160, 166, 141, 140, 167, 160, 161, 166, 142, 141, 167, 161, 162, 166, 143, 142, 167, 162, 163, 166, 144, 143, 167, 163, 164, 166, 145, 144, 167, 164, 165, 166, 126, 145, 167, 165, 146]
                rel material:binding = </GenericCDU/Looks/PipeSteel>
                uniform token orientation = "rightHanded"
                point3f[] points = [(-0.3609, -0.238, 2.122), (-0.37635085, -0.24044718, 2.122), (-0.39028928, -0.24754915, 2.122), (-0.40135086, -0.25861073, 2.122), (-0.40845284, -0.27254915, 2.122), (-0.4109, -0.288, 2.122), (-0.40845284, -0.30345085, 2.122), (-0.40135086, -0.31738925, 2.122), (-0.39028928, -0.32845086, 2.122), (-0.37635085, -0.3355528, 2.122), (-0.3609, -0.338, 2.122), (-0.34544915, -0.3355528, 2.122), (-0.33151072, -0.32845086, 2.122), (-0.32044914, -0.31738925, 2.122), (-0.31334716, -0.30345085, 2.122), (-0.3109, -0.288, 2.122), (-0.31334716, -0.27254915, 2.122), (-0.32044914, -0.25861073, 2.122), (-0.33151072, -0.24754915, 2.122), (-0.34544915, -0.24044718, 2.122), (-0.3609, -0.238, 2.342), (-0.37635085, -0.24044718, 2.342), (-0.39028928, -0.24754915, 2.342), (-0.40135086, -0.25861073, 2.342), (-0.40845284, -0.27254915, 2.342), (-0.4109, -0.288, 2.342), (-0.40845284, -0.30345085, 2.342), (-0.40135086, -0.31738925, 2.342), (-0.39028928, -0.32845086, 2.342), (-0.37635085, -0.3355528, 2.342), (-0.3609, -0.338, 2.342), (-0.34544915, -0.3355528, 2.342), (-0.33151072, -0.32845086, 2.342), (-0.32044914, -0.31738925, 2.342), (-0.31334716, -0.30345085, 2.342), (-0.3109, -0.288, 2.342), (-0.31334716, -0.27254915, 2.342), (-0.32044914, -0.25861073, 2.342), (-0.33151072, -0.24754915, 2.342), (-0.34544915, -0.24044718, 2.342), (-0.3609, -0.288, 2.122), (-0.3609, -0.288, 2.342), (-0.3609, -0.058, 2.122), (-0.37635085, -0.060447175, 2.122), (-0.39028928, -0.06754915, 2.122), (-0.40135086, -0.07861074, 2.122), (-0.40845284, -0.09254915, 2.122), (-0.4109, -0.108, 2.122), (-0.40845284, -0.12345085, 2.122), (-0.40135086, -0.13738926, 2.122), (-0.39028928, -0.14845085, 2.122), (-0.37635085, -0.15555282, 2.122), (-0.3609, -0.158, 2.122), (-0.34544915, -0.15555282, 2.122), (-0.33151072, -0.14845085, 2.122), (-0.32044914, -0.13738926, 2.122), (-0.31334716, -0.12345085, 2.122), (-0.3109, -0.108, 2.122), (-0.31334716, -0.09254915, 2.122), (-0.32044914, -0.07861074, 2.122), (-0.33151072, -0.06754915, 2.122), (-0.34544915, -0.060447175, 2.122), (-0.3609, -0.058, 2.342), (-0.37635085, -0.060447175, 2.342), (-0.39028928, -0.06754915, 2.342), (-0.40135086, -0.07861074, 2.342), (-0.40845284, -0.09254915, 2.342), (-0.4109, -0.108, 2.342), (-0.40845284, -0.12345085, 2.342), (-0.40135086, -0.13738926, 2.342), (-0.39028928, -0.14845085, 2.342), (-0.37635085, -0.15555282, 2.342), (-0.3609, -0.158, 2.342), (-0.34544915, -0.15555282, 2.342), (-0.33151072, -0.14845085, 2.342), (-0.32044914, -0.13738926, 2.342), (-0.31334716, -0.12345085, 2.342), (-0.3109, -0.108, 2.342), (-0.31334716, -0.09254915, 2.342), (-0.32044914, -0.07861074, 2.342), (-0.33151072, -0.06754915, 2.342), (-0.34544915, -0.060447175, 2.342), (-0.3609, -0.108, 2.122), (-0.3609, -0.108, 2.342), (-0.3609, 0.158, 2.122), (-0.37635085, 0.15555282, 2.122), (-0.39028928, 0.14845085, 2.122), (-0.40135086, 0.13738926, 2.122), (-0.40845284, 0.12345085, 2.122), (-0.4109, 0.108, 2.122), (-0.40845284, 0.09254915, 2.122), (-0.40135086, 0.07861074, 2.122), (-0.39028928, 0.06754915, 2.122), (-0.37635085, 0.060447175, 2.122), (-0.3609, 0.058, 2.122), (-0.34544915, 0.060447175, 2.122), (-0.33151072, 0.06754915, 2.122), (-0.32044914, 0.07861074, 2.122), (-0.31334716, 0.09254915, 2.122), (-0.3109, 0.108, 2.122), (-0.31334716, 0.12345085, 2.122), (-0.32044914, 0.13738926, 2.122), (-0.33151072, 0.14845085, 2.122), (-0.34544915, 0.15555282, 2.122), (-0.3609, 0.158, 2.342), (-0.37635085, 0.15555282, 2.342), (-0.39028928, 0.14845085, 2.342), (-0.40135086, 0.13738926, 2.342), (-0.40845284, 0.12345085, 2.342), (-0.4109, 0.108, 2.342), (-0.40845284, 0.09254915, 2.342), (-0.40135086, 0.07861074, 2.342), (-0.39028928, 0.06754915, 2.342), (-0.37635085, 0.060447175, 2.342), (-0.3609, 0.058, 2.342), (-0.34544915, 0.060447175, 2.342), (-0.33151072, 0.06754915, 2.342), (-0.32044914, 0.07861074, 2.342), (-0.31334716, 0.09254915, 2.342), (-0.3109, 0.108, 2.342), (-0.31334716, 0.12345085, 2.342), (-0.32044914, 0.13738926, 2.342), (-0.33151072, 0.14845085, 2.342), (-0.34544915, 0.15555282, 2.342), (-0.3609, 0.108, 2.122), (-0.3609, 0.108, 2.342), (-0.3609, 0.338, 2.122), (-0.37635085, 0.3355528, 2.122), (-0.39028928, 0.32845086, 2.122), (-0.40135086, 0.31738925, 2.122), (-0.40845284, 0.30345085, 2.122), (-0.4109, 0.288, 2.122), (-0.40845284, 0.27254915, 2.122), (-0.40135086, 0.25861073, 2.122), (-0.39028928, 0.24754915, 2.122), (-0.37635085, 0.24044718, 2.122), (-0.3609, 0.238, 2.122), (-0.34544915, 0.24044718, 2.122), (-0.33151072, 0.24754915, 2.122), (-0.32044914, 0.25861073, 2.122), (-0.31334716, 0.27254915, 2.122), (-0.3109, 0.288, 2.122), (-0.31334716, 0.30345085, 2.122), (-0.32044914, 0.31738925, 2.122), (-0.33151072, 0.32845086, 2.122), (-0.34544915, 0.3355528, 2.122), (-0.3609, 0.338, 2.342), (-0.37635085, 0.3355528, 2.342), (-0.39028928, 0.32845086, 2.342), (-0.40135086, 0.31738925, 2.342), (-0.40845284, 0.30345085, 2.342), (-0.4109, 0.288, 2.342), (-0.40845284, 0.27254915, 2.342), (-0.40135086, 0.25861073, 2.342), (-0.39028928, 0.24754915, 2.342), (-0.37635085, 0.24044718, 2.342), (-0.3609, 0.238, 2.342), (-0.34544915, 0.24044718, 2.342), (-0.33151072, 0.24754915, 2.342), (-0.32044914, 0.25861073, 2.342), (-0.31334716, 0.27254915, 2.342), (-0.3109, 0.288, 2.342), (-0.31334716, 0.30345085, 2.342), (-0.32044914, 0.31738925, 2.342), (-0.33151072, 0.32845086, 2.342), (-0.34544915, 0.3355528, 2.342), (-0.3609, 0.288, 2.122), (-0.3609, 0.288, 2.342)]
                uniform token subdivisionScheme = "none"
            }

            def Mesh "Flange" (
                prepend apiSchemas = ["MaterialBindingAPI"]
            )
            {
                float3[] extent = [(-0.4334, -0.3605, 2.122), (-0.2884, 0.3605, 2.342)]
                int[] faceVertexCounts = [4, 4, 4, 4, 4, 4, 4, 4, 4, 4, 4, 4, 4, 4, 4, 4, 4, 4, 4, 4, 3, 3, 3, 3, 3, 3, 3, 3, 3, 3, 3, 3, 3, 3, 3, 3, 3, 3, 3, 3, 3, 3, 3, 3, 3, 3, 3, 3, 3, 3, 3, 3, 3, 3, 3, 3, 3, 3, 3, 3, 4, 4, 4, 4, 4, 4, 4, 4, 4, 4, 4, 4, 4, 4, 4, 4, 4, 4, 4, 4, 3, 3, 3, 3, 3, 3, 3, 3, 3, 3, 3, 3, 3, 3, 3, 3, 3, 3, 3, 3, 3, 3, 3, 3, 3, 3, 3, 3, 3, 3, 3, 3, 3, 3, 3, 3, 3, 3, 3, 3, 4, 4, 4, 4, 4, 4, 4, 4, 4, 4, 4, 4, 4, 4, 4, 4, 4, 4, 4, 4, 3, 3, 3, 3, 3, 3, 3, 3, 3, 3, 3, 3, 3, 3, 3, 3, 3, 3, 3, 3, 3, 3, 3, 3, 3, 3, 3, 3, 3, 3, 3, 3, 3, 3, 3, 3, 3, 3, 3, 3, 4, 4, 4, 4, 4, 4, 4, 4, 4, 4, 4, 4, 4, 4, 4, 4, 4, 4, 4, 4, 3, 3, 3, 3, 3, 3, 3, 3, 3, 3, 3, 3, 3, 3, 3, 3, 3, 3, 3, 3, 3, 3, 3, 3, 3, 3, 3, 3, 3, 3, 3, 3, 3, 3, 3, 3, 3, 3, 3, 3, 4, 4, 4, 4, 4, 4, 4, 4, 4, 4, 4, 4, 4, 4, 4, 4, 4, 4, 4, 4, 3, 3, 3, 3, 3, 3, 3, 3, 3, 3, 3, 3, 3, 3, 3, 3, 3, 3, 3, 3, 3, 3, 3, 3, 3, 3, 3, 3, 3, 3, 3, 3, 3, 3, 3, 3, 3, 3, 3, 3, 4, 4, 4, 4, 4, 4, 4, 4, 4, 4, 4, 4, 4, 4, 4, 4, 4, 4, 4, 4, 3, 3, 3, 3, 3, 3, 3, 3, 3, 3, 3, 3, 3, 3, 3, 3, 3, 3, 3, 3, 3, 3, 3, 3, 3, 3, 3, 3, 3, 3, 3, 3, 3, 3, 3, 3, 3, 3, 3, 3, 4, 4, 4, 4, 4, 4, 4, 4, 4, 4, 4, 4, 4, 4, 4, 4, 4, 4, 4, 4, 3, 3, 3, 3, 3, 3, 3, 3, 3, 3, 3, 3, 3, 3, 3, 3, 3, 3, 3, 3, 3, 3, 3, 3, 3, 3, 3, 3, 3, 3, 3, 3, 3, 3, 3, 3, 3, 3, 3, 3, 4, 4, 4, 4, 4, 4, 4, 4, 4, 4, 4, 4, 4, 4, 4, 4, 4, 4, 4, 4, 3, 3, 3, 3, 3, 3, 3, 3, 3, 3, 3, 3, 3, 3, 3, 3, 3, 3, 3, 3, 3, 3, 3, 3, 3, 3, 3, 3, 3, 3, 3, 3, 3, 3, 3, 3, 3, 3, 3, 3]
                int[] faceVertexIndices = [0, 1, 21, 20, 1, 2, 22, 21, 2, 3, 23, 22, 3, 4, 24, 23, 4, 5, 25, 24, 5, 6, 26, 25, 6, 7, 27, 26, 7, 8, 28, 27, 8, 9, 29, 28, 9, 10, 30, 29, 10, 11, 31, 30, 11, 12, 32, 31, 12, 13, 33, 32, 13, 14, 34, 33, 14, 15, 35, 34, 15, 16, 36, 35, 16, 17, 37, 36, 17, 18, 38, 37, 18, 19, 39, 38, 19, 0, 20, 39, 40, 1, 0, 41, 20, 21, 40, 2, 1, 41, 21, 22, 40, 3, 2, 41, 22, 23, 40, 4, 3, 41, 23, 24, 40, 5, 4, 41, 24, 25, 40, 6, 5, 41, 25, 26, 40, 7, 6, 41, 26, 27, 40, 8, 7, 41, 27, 28, 40, 9, 8, 41, 28, 29, 40, 10, 9, 41, 29, 30, 40, 11, 10, 41, 30, 31, 40, 12, 11, 41, 31, 32, 40, 13, 12, 41, 32, 33, 40, 14, 13, 41, 33, 34, 40, 15, 14, 41, 34, 35, 40, 16, 15, 41, 35, 36, 40, 17, 16, 41, 36, 37, 40, 18, 17, 41, 37, 38, 40, 19, 18, 41, 38, 39, 40, 0, 19, 41, 39, 20, 42, 43, 63, 62, 43, 44, 64, 63, 44, 45, 65, 64, 45, 46, 66, 65, 46, 47, 67, 66, 47, 48, 68, 67, 48, 49, 69, 68, 49, 50, 70, 69, 50, 51, 71, 70, 51, 52, 72, 71, 52, 53, 73, 72, 53, 54, 74, 73, 54, 55, 75, 74, 55, 56, 76, 75, 56, 57, 77, 76, 57, 58, 78, 77, 58, 59, 79, 78, 59, 60, 80, 79, 60, 61, 81, 80, 61, 42, 62, 81, 82, 43, 42, 83, 62, 63, 82, 44, 43, 83, 63, 64, 82, 45, 44, 83, 64, 65, 82, 46, 45, 83, 65, 66, 82, 47, 46, 83, 66, 67, 82, 48, 47, 83, 67, 68, 82, 49, 48, 83, 68, 69, 82, 50, 49, 83, 69, 70, 82, 51, 50, 83, 70, 71, 82, 52, 51, 83, 71, 72, 82, 53, 52, 83, 72, 73, 82, 54, 53, 83, 73, 74, 82, 55, 54, 83, 74, 75, 82, 56, 55, 83, 75, 76, 82, 57, 56, 83, 76, 77, 82, 58, 57, 83, 77, 78, 82, 59, 58, 83, 78, 79, 82, 60, 59, 83, 79, 80, 82, 61, 60, 83, 80, 81, 82, 42, 61, 83, 81, 62, 84, 85, 105, 104, 85, 86, 106, 105, 86, 87, 107, 106, 87, 88, 108, 107, 88, 89, 109, 108, 89, 90, 110, 109, 90, 91, 111, 110, 91, 92, 112, 111, 92, 93, 113, 112, 93, 94, 114, 113, 94, 95, 115, 114, 95, 96, 116, 115, 96, 97, 117, 116, 97, 98, 118, 117, 98, 99, 119, 118, 99, 100, 120, 119, 100, 101, 121, 120, 101, 102, 122, 121, 102, 103, 123, 122, 103, 84, 104, 123, 124, 85, 84, 125, 104, 105, 124, 86, 85, 125, 105, 106, 124, 87, 86, 125, 106, 107, 124, 88, 87, 125, 107, 108, 124, 89, 88, 125, 108, 109, 124, 90, 89, 125, 109, 110, 124, 91, 90, 125, 110, 111, 124, 92, 91, 125, 111, 112, 124, 93, 92, 125, 112, 113, 124, 94, 93, 125, 113, 114, 124, 95, 94, 125, 114, 115, 124, 96, 95, 125, 115, 116, 124, 97, 96, 125, 116, 117, 124, 98, 97, 125, 117, 118, 124, 99, 98, 125, 118, 119, 124, 100, 99, 125, 119, 120, 124, 101, 100, 125, 120, 121, 124, 102, 101, 125, 121, 122, 124, 103, 102, 125, 122, 123, 124, 84, 103, 125, 123, 104, 126, 127, 147, 146, 127, 128, 148, 147, 128, 129, 149, 148, 129, 130, 150, 149, 130, 131, 151, 150, 131, 132, 152, 151, 132, 133, 153, 152, 133, 134, 154, 153, 134, 135, 155, 154, 135, 136, 156, 155, 136, 137, 157, 156, 137, 138, 158, 157, 138, 139, 159, 158, 139, 140, 160, 159, 140, 141, 161, 160, 141, 142, 162, 161, 142, 143, 163, 162, 143, 144, 164, 163, 144, 145, 165, 164, 145, 126, 146, 165, 166, 127, 126, 167, 146, 147, 166, 128, 127, 167, 147, 148, 166, 129, 128, 167, 148, 149, 166, 130, 129, 167, 149, 150, 166, 131, 130, 167, 150, 151, 166, 132, 131, 167, 151, 152, 166, 133, 132, 167, 152, 153, 166, 134, 133, 167, 153, 154, 166, 135, 134, 167, 154, 155, 166, 136, 135, 167, 155, 156, 166, 137, 136, 167, 156, 157, 166, 138, 137, 167, 157, 158, 166, 139, 138, 167, 158, 159, 166, 140, 139, 167, 159, 160, 166, 141, 140, 167, 160, 161, 166, 142, 141, 167, 161, 162, 166, 143, 142, 167, 162, 163, 166, 144, 143, 167, 163, 164, 166, 145, 144, 167, 164, 165, 166, 126, 145, 167, 165, 146, 168, 169, 189, 188, 169, 170, 190, 189, 170, 171, 191, 190, 171, 172, 192, 191, 172, 173, 193, 192, 173, 174, 194, 193, 174, 175, 195, 194, 175, 176, 196, 195, 176, 177, 197, 196, 177, 178, 198, 197, 178, 179, 199, 198, 179, 180, 200, 199, 180, 181, 201, 200, 181, 182, 202, 201, 182, 183, 203, 202, 183, 184, 204, 203, 184, 185, 205, 204, 185, 186, 206, 205, 186, 187, 207, 206, 187, 168, 188, 207, 208, 169, 168, 209, 188, 189, 208, 170, 169, 209, 189, 190, 208, 171, 170, 209, 190, 191, 208, 172, 171, 209, 191, 192, 208, 173, 172, 209, 192, 193, 208, 174, 173, 209, 193, 194, 208, 175, 174, 209, 194, 195, 208, 176, 175, 209, 195, 196, 208, 177, 176, 209, 196, 197, 208, 178, 177, 209, 197, 198, 208, 179, 178, 209, 198, 199, 208, 180, 179, 209, 199, 200, 208, 181, 180, 209, 200, 201, 208, 182, 181, 209, 201, 202, 208, 183, 182, 209, 202, 203, 208, 184, 183, 209, 203, 204, 208, 185, 184, 209, 204, 205, 208, 186, 185, 209, 205, 206, 208, 187, 186, 209, 206, 207, 208, 168, 187, 209, 207, 188, 210, 211, 231, 230, 211, 212, 232, 231, 212, 213, 233, 232, 213, 214, 234, 233, 214, 215, 235, 234, 215, 216, 236, 235, 216, 217, 237, 236, 217, 218, 238, 237, 218, 219, 239, 238, 219, 220, 240, 239, 220, 221, 241, 240, 221, 222, 242, 241, 222, 223, 243, 242, 223, 224, 244, 243, 224, 225, 245, 244, 225, 226, 246, 245, 226, 227, 247, 246, 227, 228, 248, 247, 228, 229, 249, 248, 229, 210, 230, 249, 250, 211, 210, 251, 230, 231, 250, 212, 211, 251, 231, 232, 250, 213, 212, 251, 232, 233, 250, 214, 213, 251, 233, 234, 250, 215, 214, 251, 234, 235, 250, 216, 215, 251, 235, 236, 250, 217, 216, 251, 236, 237, 250, 218, 217, 251, 237, 238, 250, 219, 218, 251, 238, 239, 250, 220, 219, 251, 239, 240, 250, 221, 220, 251, 240, 241, 250, 222, 221, 251, 241, 242, 250, 223, 222, 251, 242, 243, 250, 224, 223, 251, 243, 244, 250, 225, 224, 251, 244, 245, 250, 226, 225, 251, 245, 246, 250, 227, 226, 251, 246, 247, 250, 228, 227, 251, 247, 248, 250, 229, 228, 251, 248, 249, 250, 210, 229, 251, 249, 230, 252, 253, 273, 272, 253, 254, 274, 273, 254, 255, 275, 274, 255, 256, 276, 275, 256, 257, 277, 276, 257, 258, 278, 277, 258, 259, 279, 278, 259, 260, 280, 279, 260, 261, 281, 280, 261, 262, 282, 281, 262, 263, 283, 282, 263, 264, 284, 283, 264, 265, 285, 284, 265, 266, 286, 285, 266, 267, 287, 286, 267, 268, 288, 287, 268, 269, 289, 288, 269, 270, 290, 289, 270, 271, 291, 290, 271, 252, 272, 291, 292, 253, 252, 293, 272, 273, 292, 254, 253, 293, 273, 274, 292, 255, 254, 293, 274, 275, 292, 256, 255, 293, 275, 276, 292, 257, 256, 293, 276, 277, 292, 258, 257, 293, 277, 278, 292, 259, 258, 293, 278, 279, 292, 260, 259, 293, 279, 280, 292, 261, 260, 293, 280, 281, 292, 262, 261, 293, 281, 282, 292, 263, 262, 293, 282, 283, 292, 264, 263, 293, 283, 284, 292, 265, 264, 293, 284, 285, 292, 266, 265, 293, 285, 286, 292, 267, 266, 293, 286, 287, 292, 268, 267, 293, 287, 288, 292, 269, 268, 293, 288, 289, 292, 270, 269, 293, 289, 290, 292, 271, 270, 293, 290, 291, 292, 252, 271, 293, 291, 272, 294, 295, 315, 314, 295, 296, 316, 315, 296, 297, 317, 316, 297, 298, 318, 317, 298, 299, 319, 318, 299, 300, 320, 319, 300, 301, 321, 320, 301, 302, 322, 321, 302, 303, 323, 322, 303, 304, 324, 323, 304, 305, 325, 324, 305, 306, 326, 325, 306, 307, 327, 326, 307, 308, 328, 327, 308, 309, 329, 328, 309, 310, 330, 329, 310, 311, 331, 330, 311, 312, 332, 331, 312, 313, 333, 332, 313, 294, 314, 333, 334, 295, 294, 335, 314, 315, 334, 296, 295, 335, 315, 316, 334, 297, 296, 335, 316, 317, 334, 298, 297, 335, 317, 318, 334, 299, 298, 335, 318, 319, 334, 300, 299, 335, 319, 320, 334, 301, 300, 335, 320, 321, 334, 302, 301, 335, 321, 322, 334, 303, 302, 335, 322, 323, 334, 304, 303, 335, 323, 324, 334, 305, 304, 335, 324, 325, 334, 306, 305, 335, 325, 326, 334, 307, 306, 335, 326, 327, 334, 308, 307, 335, 327, 328, 334, 309, 308, 335, 328, 329, 334, 310, 309, 335, 329, 330, 334, 311, 310, 335, 330, 331, 334, 312, 311, 335, 331, 332, 334, 313, 312, 335, 332, 333, 334, 294, 313, 335, 333, 314]
                rel material:binding = </GenericCDU/Looks/Flange>
                uniform token orientation = "rightHanded"
                point3f[] points = [(-0.3609, -0.2155, 2.322), (-0.38330373, -0.2190484, 2.322), (-0.40351444, -0.22934628, 2.322), (-0.41955373, -0.24538557, 2.322), (-0.4298516, -0.26559627, 2.322), (-0.4334, -0.288, 2.322), (-0.4298516, -0.31040373, 2.322), (-0.41955373, -0.33061442, 2.322), (-0.40351444, -0.34665373, 2.322), (-0.38330373, -0.3569516, 2.322), (-0.3609, -0.3605, 2.322), (-0.33849627, -0.3569516, 2.322), (-0.31828555, -0.34665373, 2.322), (-0.30224627, -0.33061442, 2.322), (-0.2919484, -0.31040373, 2.322), (-0.2884, -0.288, 2.322), (-0.2919484, -0.26559627, 2.322), (-0.30224627, -0.24538557, 2.322), (-0.31828555, -0.22934628, 2.322), (-0.33849627, -0.2190484, 2.322), (-0.3609, -0.2155, 2.342), (-0.38330373, -0.2190484, 2.342), (-0.40351444, -0.22934628, 2.342), (-0.41955373, -0.24538557, 2.342), (-0.4298516, -0.26559627, 2.342), (-0.4334, -0.288, 2.342), (-0.4298516, -0.31040373, 2.342), (-0.41955373, -0.33061442, 2.342), (-0.40351444, -0.34665373, 2.342), (-0.38330373, -0.3569516, 2.342), (-0.3609, -0.3605, 2.342), (-0.33849627, -0.3569516, 2.342), (-0.31828555, -0.34665373, 2.342), (-0.30224627, -0.33061442, 2.342), (-0.2919484, -0.31040373, 2.342), (-0.2884, -0.288, 2.342), (-0.2919484, -0.26559627, 2.342), (-0.30224627, -0.24538557, 2.342), (-0.31828555, -0.22934628, 2.342), (-0.33849627, -0.2190484, 2.342), (-0.3609, -0.288, 2.322), (-0.3609, -0.288, 2.342), (-0.3609, -0.223, 2.122), (-0.3809861, -0.22618133, 2.122), (-0.39910606, -0.2354139, 2.122), (-0.4134861, -0.24979396, 2.122), (-0.42271867, -0.2679139, 2.122), (-0.4259, -0.288, 2.122), (-0.42271867, -0.3080861, 2.122), (-0.4134861, -0.32620603, 2.122), (-0.39910606, -0.3405861, 2.122), (-0.3809861, -0.34981868, 2.122), (-0.3609, -0.353, 2.122), (-0.3408139, -0.34981868, 2.122), (-0.32269394, -0.3405861, 2.122), (-0.3083139, -0.32620603, 2.122), (-0.29908133, -0.3080861, 2.122), (-0.2959, -0.288, 2.122), (-0.29908133, -0.2679139, 2.122), (-0.3083139, -0.24979396, 2.122), (-0.32269394, -0.2354139, 2.122), (-0.3408139, -0.22618133, 2.122), (-0.3609, -0.223, 2.147), (-0.3809861, -0.22618133, 2.147), (-0.39910606, -0.2354139, 2.147), (-0.4134861, -0.24979396, 2.147), (-0.42271867, -0.2679139, 2.147), (-0.4259, -0.288, 2.147), (-0.42271867, -0.3080861, 2.147), (-0.4134861, -0.32620603, 2.147), (-0.39910606, -0.3405861, 2.147), (-0.3809861, -0.34981868, 2.147), (-0.3609, -0.353, 2.147), (-0.3408139, -0.34981868, 2.147), (-0.32269394, -0.3405861, 2.147), (-0.3083139, -0.32620603, 2.147), (-0.29908133, -0.3080861, 2.147), (-0.2959, -0.288, 2.147), (-0.29908133, -0.2679139, 2.147), (-0.3083139, -0.24979396, 2.147), (-0.32269394, -0.2354139, 2.147), (-0.3408139, -0.22618133, 2.147), (-0.3609, -0.288, 2.122), (-0.3609, -0.288, 2.147), (-0.3609, -0.0355, 2.322), (-0.38330373, -0.039048404, 2.322), (-0.40351444, -0.04934627, 2.322), (-0.41955373, -0.06538557, 2.322), (-0.4298516, -0.08559627, 2.322), (-0.4334, -0.108, 2.322), (-0.4298516, -0.13040373, 2.322), (-0.41955373, -0.15061443, 2.322), (-0.40351444, -0.16665374, 2.322), (-0.38330373, -0.1769516, 2.322), (-0.3609, -0.1805, 2.322), (-0.33849627, -0.1769516, 2.322), (-0.31828555, -0.16665374, 2.322), (-0.30224627, -0.15061443, 2.322), (-0.2919484, -0.13040373, 2.322), (-0.2884, -0.108, 2.322), (-0.2919484, -0.08559627, 2.322), (-0.30224627, -0.06538557, 2.322), (-0.31828555, -0.04934627, 2.322), (-0.33849627, -0.039048404, 2.322), (-0.3609, -0.0355, 2.342), (-0.38330373, -0.039048404, 2.342), (-0.40351444, -0.04934627, 2.342), (-0.41955373, -0.06538557, 2.342), (-0.4298516, -0.08559627, 2.342), (-0.4334, -0.108, 2.342), (-0.4298516, -0.13040373, 2.342), (-0.41955373, -0.15061443, 2.342), (-0.40351444, -0.16665374, 2.342), (-0.38330373, -0.1769516, 2.342), (-0.3609, -0.1805, 2.342), (-0.33849627, -0.1769516, 2.342), (-0.31828555, -0.16665374, 2.342), (-0.30224627, -0.15061443, 2.342), (-0.2919484, -0.13040373, 2.342), (-0.2884, -0.108, 2.342), (-0.2919484, -0.08559627, 2.342), (-0.30224627, -0.06538557, 2.342), (-0.31828555, -0.04934627, 2.342), (-0.33849627, -0.039048404, 2.342), (-0.3609, -0.108, 2.322), (-0.3609, -0.108, 2.342), (-0.3609, -0.043, 2.122), (-0.3809861, -0.046181325, 2.122), (-0.39910606, -0.055413894, 2.122), (-0.4134861, -0.06979396, 2.122), (-0.42271867, -0.08791389, 2.122), (-0.4259, -0.108, 2.122), (-0.42271867, -0.1280861, 2.122), (-0.4134861, -0.14620604, 2.122), (-0.39910606, -0.1605861, 2.122), (-0.3809861, -0.16981867, 2.122), (-0.3609, -0.173, 2.122), (-0.3408139, -0.16981867, 2.122), (-0.32269394, -0.1605861, 2.122), (-0.3083139, -0.14620604, 2.122), (-0.29908133, -0.1280861, 2.122), (-0.2959, -0.108, 2.122), (-0.29908133, -0.08791389, 2.122), (-0.3083139, -0.06979396, 2.122), (-0.32269394, -0.055413894, 2.122), (-0.3408139, -0.046181325, 2.122), (-0.3609, -0.043, 2.147), (-0.3809861, -0.046181325, 2.147), (-0.39910606, -0.055413894, 2.147), (-0.4134861, -0.06979396, 2.147), (-0.42271867, -0.08791389, 2.147), (-0.4259, -0.108, 2.147), (-0.42271867, -0.1280861, 2.147), (-0.4134861, -0.14620604, 2.147), (-0.39910606, -0.1605861, 2.147), (-0.3809861, -0.16981867, 2.147), (-0.3609, -0.173, 2.147), (-0.3408139, -0.16981867, 2.147), (-0.32269394, -0.1605861, 2.147), (-0.3083139, -0.14620604, 2.147), (-0.29908133, -0.1280861, 2.147), (-0.2959, -0.108, 2.147), (-0.29908133, -0.08791389, 2.147), (-0.3083139, -0.06979396, 2.147), (-0.32269394, -0.055413894, 2.147), (-0.3408139, -0.046181325, 2.147), (-0.3609, -0.108, 2.122), (-0.3609, -0.108, 2.147), (-0.3609, 0.1805, 2.322), (-0.38330373, 0.1769516, 2.322), (-0.40351444, 0.16665374, 2.322), (-0.41955373, 0.15061443, 2.322), (-0.4298516, 0.13040373, 2.322), (-0.4334, 0.108, 2.322), (-0.4298516, 0.08559627, 2.322), (-0.41955373, 0.06538557, 2.322), (-0.40351444, 0.04934627, 2.322), (-0.38330373, 0.039048404, 2.322), (-0.3609, 0.0355, 2.322), (-0.33849627, 0.039048404, 2.322), (-0.31828555, 0.04934627, 2.322), (-0.30224627, 0.06538557, 2.322), (-0.2919484, 0.08559627, 2.322), (-0.2884, 0.108, 2.322), (-0.2919484, 0.13040373, 2.322), (-0.30224627, 0.15061443, 2.322), (-0.31828555, 0.16665374, 2.322), (-0.33849627, 0.1769516, 2.322), (-0.3609, 0.1805, 2.342), (-0.38330373, 0.1769516, 2.342), (-0.40351444, 0.16665374, 2.342), (-0.41955373, 0.15061443, 2.342), (-0.4298516, 0.13040373, 2.342), (-0.4334, 0.108, 2.342), (-0.4298516, 0.08559627, 2.342), (-0.41955373, 0.06538557, 2.342), (-0.40351444, 0.04934627, 2.342), (-0.38330373, 0.039048404, 2.342), (-0.3609, 0.0355, 2.342), (-0.33849627, 0.039048404, 2.342), (-0.31828555, 0.04934627, 2.342), (-0.30224627, 0.06538557, 2.342), (-0.2919484, 0.08559627, 2.342), (-0.2884, 0.108, 2.342), (-0.2919484, 0.13040373, 2.342), (-0.30224627, 0.15061443, 2.342), (-0.31828555, 0.16665374, 2.342), (-0.33849627, 0.1769516, 2.342), (-0.3609, 0.108, 2.322), (-0.3609, 0.108, 2.342), (-0.3609, 0.173, 2.122), (-0.3809861, 0.16981867, 2.122), (-0.39910606, 0.1605861, 2.122), (-0.4134861, 0.14620604, 2.122), (-0.42271867, 0.1280861, 2.122), (-0.4259, 0.108, 2.122), (-0.42271867, 0.08791389, 2.122), (-0.4134861, 0.06979396, 2.122), (-0.39910606, 0.055413894, 2.122), (-0.3809861, 0.046181325, 2.122), (-0.3609, 0.043, 2.122), (-0.3408139, 0.046181325, 2.122), (-0.32269394, 0.055413894, 2.122), (-0.3083139, 0.06979396, 2.122), (-0.29908133, 0.08791389, 2.122), (-0.2959, 0.108, 2.122), (-0.29908133, 0.1280861, 2.122), (-0.3083139, 0.14620604, 2.122), (-0.32269394, 0.1605861, 2.122), (-0.3408139, 0.16981867, 2.122), (-0.3609, 0.173, 2.147), (-0.3809861, 0.16981867, 2.147), (-0.39910606, 0.1605861, 2.147), (-0.4134861, 0.14620604, 2.147), (-0.42271867, 0.1280861, 2.147), (-0.4259, 0.108, 2.147), (-0.42271867, 0.08791389, 2.147), (-0.4134861, 0.06979396, 2.147), (-0.39910606, 0.055413894, 2.147), (-0.3809861, 0.046181325, 2.147), (-0.3609, 0.043, 2.147), (-0.3408139, 0.046181325, 2.147), (-0.32269394, 0.055413894, 2.147), (-0.3083139, 0.06979396, 2.147), (-0.29908133, 0.08791389, 2.147), (-0.2959, 0.108, 2.147), (-0.29908133, 0.1280861, 2.147), (-0.3083139, 0.14620604, 2.147), (-0.32269394, 0.1605861, 2.147), (-0.3408139, 0.16981867, 2.147), (-0.3609, 0.108, 2.122), (-0.3609, 0.108, 2.147), (-0.3609, 0.3605, 2.322), (-0.38330373, 0.3569516, 2.322), (-0.40351444, 0.34665373, 2.322), (-0.41955373, 0.33061442, 2.322), (-0.4298516, 0.31040373, 2.322), (-0.4334, 0.288, 2.322), (-0.4298516, 0.26559627, 2.322), (-0.41955373, 0.24538557, 2.322), (-0.40351444, 0.22934628, 2.322), (-0.38330373, 0.2190484, 2.322), (-0.3609, 0.2155, 2.322), (-0.33849627, 0.2190484, 2.322), (-0.31828555, 0.22934628, 2.322), (-0.30224627, 0.24538557, 2.322), (-0.2919484, 0.26559627, 2.322), (-0.2884, 0.288, 2.322), (-0.2919484, 0.31040373, 2.322), (-0.30224627, 0.33061442, 2.322), (-0.31828555, 0.34665373, 2.322), (-0.33849627, 0.3569516, 2.322), (-0.3609, 0.3605, 2.342), (-0.38330373, 0.3569516, 2.342), (-0.40351444, 0.34665373, 2.342), (-0.41955373, 0.33061442, 2.342), (-0.4298516, 0.31040373, 2.342), (-0.4334, 0.288, 2.342), (-0.4298516, 0.26559627, 2.342), (-0.41955373, 0.24538557, 2.342), (-0.40351444, 0.22934628, 2.342), (-0.38330373, 0.2190484, 2.342), (-0.3609, 0.2155, 2.342), (-0.33849627, 0.2190484, 2.342), (-0.31828555, 0.22934628, 2.342), (-0.30224627, 0.24538557, 2.342), (-0.2919484, 0.26559627, 2.342), (-0.2884, 0.288, 2.342), (-0.2919484, 0.31040373, 2.342), (-0.30224627, 0.33061442, 2.342), (-0.31828555, 0.34665373, 2.342), (-0.33849627, 0.3569516, 2.342), (-0.3609, 0.288, 2.322), (-0.3609, 0.288, 2.342), (-0.3609, 0.353, 2.122), (-0.3809861, 0.34981868, 2.122), (-0.39910606, 0.3405861, 2.122), (-0.4134861, 0.32620603, 2.122), (-0.42271867, 0.3080861, 2.122), (-0.4259, 0.288, 2.122), (-0.42271867, 0.2679139, 2.122), (-0.4134861, 0.24979396, 2.122), (-0.39910606, 0.2354139, 2.122), (-0.3809861, 0.22618133, 2.122), (-0.3609, 0.223, 2.122), (-0.3408139, 0.22618133, 2.122), (-0.32269394, 0.2354139, 2.122), (-0.3083139, 0.24979396, 2.122), (-0.29908133, 0.2679139, 2.122), (-0.2959, 0.288, 2.122), (-0.29908133, 0.3080861, 2.122), (-0.3083139, 0.32620603, 2.122), (-0.32269394, 0.3405861, 2.122), (-0.3408139, 0.34981868, 2.122), (-0.3609, 0.353, 2.147), (-0.3809861, 0.34981868, 2.147), (-0.39910606, 0.3405861, 2.147), (-0.4134861, 0.32620603, 2.147), (-0.42271867, 0.3080861, 2.147), (-0.4259, 0.288, 2.147), (-0.42271867, 0.2679139, 2.147), (-0.4134861, 0.24979396, 2.147), (-0.39910606, 0.2354139, 2.147), (-0.3809861, 0.22618133, 2.147), (-0.3609, 0.223, 2.147), (-0.3408139, 0.22618133, 2.147), (-0.32269394, 0.2354139, 2.147), (-0.3083139, 0.24979396, 2.147), (-0.29908133, 0.2679139, 2.147), (-0.2959, 0.288, 2.147), (-0.29908133, 0.3080861, 2.147), (-0.3083139, 0.32620603, 2.147), (-0.32269394, 0.3405861, 2.147), (-0.3408139, 0.34981868, 2.147), (-0.3609, 0.288, 2.122), (-0.3609, 0.288, 2.147)]
                uniform token subdivisionScheme = "none"
            }

            def Mesh "CabinetTrim" (
                prepend apiSchemas = ["MaterialBindingAPI"]
            )
            {
                float3[] extent = [(-0.5695, -0.41, 2.1228), (0.5695, 0.41, 2.1228)]
                int[] faceVertexCounts = [4]
                int[] faceVertexIndices = [0, 1, 2, 3]
                rel material:binding = </GenericCDU/Looks/CabinetTrim>
                uniform token orientation = "rightHanded"
                point3f[] points = [(-0.5695, -0.41, 2.1228), (0.5695, -0.41, 2.1228), (0.5695, 0.41, 2.1228), (-0.5695, 0.41, 2.1228)]
                uniform token subdivisionScheme = "none"
            }
        }
    }

    def Scope "ConnectionPoints"
    {
        uniform token purpose = "guide"

        def Mesh "spt_liq_primary_supply" (
            prepend apiSchemas = ["MaterialBindingAPI"]
        )
        {
            custom string aidc:connectionType = "liquid-supply" (
                doc = "Connection point attribute"
            )
            custom string aidc:loop = "primary" (
                doc = "Connection point attribute"
            )
            custom string aidc:note = "primary supply stub (top)" (
                doc = "Connection point attribute"
            )
            float3[] extent = [(-0.3859, -0.313, 2.317), (-0.3359, -0.263, 2.367)]
            int[] faceVertexCounts = [4, 4, 4, 4, 4, 4]
            int[] faceVertexIndices = [0, 3, 2, 1, 4, 5, 6, 7, 0, 1, 5, 4, 2, 3, 7, 6, 1, 2, 6, 5, 3, 0, 4, 7]
            rel material:binding = </GenericCDU/Looks/Marker>
            uniform token orientation = "rightHanded"
            point3f[] points = [(-0.3859, -0.313, 2.317), (-0.3359, -0.313, 2.317), (-0.3359, -0.263, 2.317), (-0.3859, -0.263, 2.317), (-0.3859, -0.313, 2.367), (-0.3359, -0.313, 2.367), (-0.3359, -0.263, 2.367), (-0.3859, -0.263, 2.367)]
            uniform token purpose = "guide"
            uniform token subdivisionScheme = "none"
        }

        def Mesh "spt_liq_primary_return" (
            prepend apiSchemas = ["MaterialBindingAPI"]
        )
        {
            custom string aidc:connectionType = "liquid-return" (
                doc = "Connection point attribute"
            )
            custom string aidc:loop = "primary" (
                doc = "Connection point attribute"
            )
            custom string aidc:note = "primary return stub (top)" (
                doc = "Connection point attribute"
            )
            float3[] extent = [(-0.3859, -0.133, 2.317), (-0.3359, -0.083, 2.367)]
            int[] faceVertexCounts = [4, 4, 4, 4, 4, 4]
            int[] faceVertexIndices = [0, 3, 2, 1, 4, 5, 6, 7, 0, 1, 5, 4, 2, 3, 7, 6, 1, 2, 6, 5, 3, 0, 4, 7]
            rel material:binding = </GenericCDU/Looks/Marker>
            uniform token orientation = "rightHanded"
            point3f[] points = [(-0.3859, -0.133, 2.317), (-0.3359, -0.133, 2.317), (-0.3359, -0.083, 2.317), (-0.3859, -0.083, 2.317), (-0.3859, -0.133, 2.367), (-0.3359, -0.133, 2.367), (-0.3359, -0.083, 2.367), (-0.3859, -0.083, 2.367)]
            uniform token purpose = "guide"
            uniform token subdivisionScheme = "none"
        }

        def Mesh "spt_liq_secondary_supply" (
            prepend apiSchemas = ["MaterialBindingAPI"]
        )
        {
            custom string aidc:connectionType = "liquid-supply" (
                doc = "Connection point attribute"
            )
            custom string aidc:loop = "secondary" (
                doc = "Connection point attribute"
            )
            custom string aidc:note = "secondary supply stub (top)" (
                doc = "Connection point attribute"
            )
            float3[] extent = [(-0.3859, 0.083, 2.317), (-0.3359, 0.133, 2.367)]
            int[] faceVertexCounts = [4, 4, 4, 4, 4, 4]
            int[] faceVertexIndices = [0, 3, 2, 1, 4, 5, 6, 7, 0, 1, 5, 4, 2, 3, 7, 6, 1, 2, 6, 5, 3, 0, 4, 7]
            rel material:binding = </GenericCDU/Looks/Marker>
            uniform token orientation = "rightHanded"
            point3f[] points = [(-0.3859, 0.083, 2.317), (-0.3359, 0.083, 2.317), (-0.3359, 0.133, 2.317), (-0.3859, 0.133, 2.317), (-0.3859, 0.083, 2.367), (-0.3359, 0.083, 2.367), (-0.3359, 0.133, 2.367), (-0.3859, 0.133, 2.367)]
            uniform token purpose = "guide"
            uniform token subdivisionScheme = "none"
        }

        def Mesh "spt_liq_secondary_return" (
            prepend apiSchemas = ["MaterialBindingAPI"]
        )
        {
            custom string aidc:connectionType = "liquid-return" (
                doc = "Connection point attribute"
            )
            custom string aidc:loop = "secondary" (
                doc = "Connection point attribute"
            )
            custom string aidc:note = "secondary return stub (top)" (
                doc = "Connection point attribute"
            )
            float3[] extent = [(-0.3859, 0.263, 2.317), (-0.3359, 0.313, 2.367)]
            int[] faceVertexCounts = [4, 4, 4, 4, 4, 4]
            int[] faceVertexIndices = [0, 3, 2, 1, 4, 5, 6, 7, 0, 1, 5, 4, 2, 3, 7, 6, 1, 2, 6, 5, 3, 0, 4, 7]
            rel material:binding = </GenericCDU/Looks/Marker>
            uniform token orientation = "rightHanded"
            point3f[] points = [(-0.3859, 0.263, 2.317), (-0.3359, 0.263, 2.317), (-0.3359, 0.313, 2.317), (-0.3859, 0.313, 2.317), (-0.3859, 0.263, 2.367), (-0.3359, 0.263, 2.367), (-0.3359, 0.313, 2.367), (-0.3859, 0.313, 2.367)]
            uniform token purpose = "guide"
            uniform token subdivisionScheme = "none"
        }

        def Mesh "spt_electrical_nominal_voltage_01" (
            prepend apiSchemas = ["MaterialBindingAPI"]
        )
        {
            custom string aidc:connectionType = "power" (
                doc = "Connection point attribute"
            )
            custom string aidc:path = "A" (
                doc = "Connection point attribute"
            )
            float3[] extent = [(-0.5915, -0.29, 0.23), (-0.5515, -0.25, 0.27)]
            int[] faceVertexCounts = [4, 4, 4, 4, 4, 4]
            int[] faceVertexIndices = [0, 3, 2, 1, 4, 5, 6, 7, 0, 1, 5, 4, 2, 3, 7, 6, 1, 2, 6, 5, 3, 0, 4, 7]
            rel material:binding = </GenericCDU/Looks/Marker>
            uniform token orientation = "rightHanded"
            point3f[] points = [(-0.5915, -0.29, 0.23), (-0.5515, -0.29, 0.23), (-0.5515, -0.25, 0.23), (-0.5915, -0.25, 0.23), (-0.5915, -0.29, 0.27), (-0.5515, -0.29, 0.27), (-0.5515, -0.25, 0.27), (-0.5915, -0.25, 0.27)]
            uniform token purpose = "guide"
            uniform token subdivisionScheme = "none"
        }

        def Mesh "spt_electrical_nominal_voltage_02" (
            prepend apiSchemas = ["MaterialBindingAPI"]
        )
        {
            custom string aidc:connectionType = "power" (
                doc = "Connection point attribute"
            )
            custom string aidc:path = "B" (
                doc = "Connection point attribute"
            )
            float3[] extent = [(-0.5915, 0.25, 0.23), (-0.5515, 0.29, 0.27)]
            int[] faceVertexCounts = [4, 4, 4, 4, 4, 4]
            int[] faceVertexIndices = [0, 3, 2, 1, 4, 5, 6, 7, 0, 1, 5, 4, 2, 3, 7, 6, 1, 2, 6, 5, 3, 0, 4, 7]
            rel material:binding = </GenericCDU/Looks/Marker>
            uniform token orientation = "rightHanded"
            point3f[] points = [(-0.5915, 0.25, 0.23), (-0.5515, 0.25, 0.23), (-0.5515, 0.29, 0.23), (-0.5915, 0.29, 0.23), (-0.5915, 0.25, 0.27), (-0.5515, 0.25, 0.27), (-0.5515, 0.29, 0.27), (-0.5915, 0.29, 0.27)]
            uniform token purpose = "guide"
            uniform token subdivisionScheme = "none"
        }
    }
}

